<svg xmlns="http://www.w3.org/2000/svg" width="585" height="434" viewBox="0 0 585 434"><path fill="#C67F79" d="M247 401.125s-3.75-.125-5.25 0-3.375.389-4.25-.057c-.875-.444-2.75-.555-3.75 0-1 .557-1.625 2.557 0 3.307s13.25.557 13.25.557v-3.807z"/><path fill="none" stroke="#000" stroke-width=".5" stroke-miterlimit="10" d="M247 401.125s-3.75-.125-5.25 0-3.375.389-4.25-.057c-.875-.444-2.75-.555-3.75 0-1 .557-1.625 2.557 0 3.307s13.25.557 13.25.557v-3.807z"/><path fill="#CC8279" d="M247.375 400.375s-6 2.541-8 2.708-7.5-.292-8.875 0-5.625-.042-6.5 0-4.5.292-5 1.167 1.25 1.625 2.25 1.5 5.625-.5 7.25-.5 4.875-.098 5.375.514-.731 3.725-.731 3.725l9.106-1.237 5.125-4.125v-3.752z"/><path fill="none" stroke="#000" stroke-width=".5" stroke-miterlimit="10" d="M247.375 404.125l-5.125 4.125-9.106 1.236s1.231-3.111.731-3.723c-.5-.613-3.75-.515-5.375-.515s-6.25.375-7.25.5-2.75-.625-2.25-1.5 4.125-1.125 5-1.167 5.125.292 6.5 0 6.875.167 8.875 0 8-2.708 8-2.708v3.752z"/><path fill="#CC8279" d="M299.073 396.33s-4.585 4.417-5.917 5.417c-1.333 1-8.833 1.917-10.083 2.167s-7.334-.333-8.917 0c-1.583.333-4.583.213-5.833.064s-8.824 2.269-8.824 2.269l5.324 2.75 10.5.489 16.885-1.357 6.365-4.382.5-7.417z"/><path fill="none" stroke="#000" stroke-width=".5" stroke-miterlimit="10" d="M299.001 396.33s-4.584 4.417-5.917 5.417-8.833 1.917-10.083 2.167-7.334-.333-8.917 0-4.583.213-5.833.064-8.824 2.269-8.824 2.269l5.324 2.75 10.5.489 16.885-1.357 6.365-4.382.5-7.417z"/><path fill="#D19A93" d="M305.5 280.625s3.125 16.5 3.125 18.625-.25 5.5-1.562 7.625-4.438 6.875-4.312 8.375 1.246 5.375 2.936 7 2.814 7.25 2.939 8.875-2.375 21.25-2.375 21.25-2.758 25.125-3.504 26.375-3.246 13-3.871 14.375-4 8.396-5 9.698-3.625 1.739-5.125 1.989-6.086.48-8.461.98-12.25 1-13 1.125-7.396 0-8.198 0c-.802 0-5.927-.514-7.052.057-1.125.569-5.5 1.943-5 2.943s1.875 4.125 4.75 4.125 6.967.375 9.046 0 9.204-1.625 10.954-1.625 7.773.581 10.648.831 12.687.752 14.562.627 7.75-1.375 9.125-1.25 6 .75 7.125.125 2.625-2.625 2.875-5.125-.125-12.125 0-13.25 1-17.5 1.25-19.125 3.5-22 3.5-23.875 2.875-18.625 3.125-20.25 3-14.75 3.625-15.875.357-9.743-.406-11.812c-.75-2.03-5.469-11.188-5.469-12.688s-.875-12.625-.875-12.625l-10.25-6.875-5.125 9.375z"/><path fill="#BA756E" d="M305.609 283.8l1.77 7.138.899 5.418s.847 4.729-.479 8.908c-.353 1.11.034 3.905 1.367 4.736 2.08 1.297 2.459 1.583 2.669 3.083.149 1.067.122 2.345 0 4.667-.043.82 1.229 11.844 1.853 14.438.812 3.375 3.857 8.217 5.729 9.146 1.521.755 2.988-.559 2.988-.559s1.404-9.01 1.507-9.103c.369-.337 4.061-18.586 4.061-18.586v-5.583l-.646-3.717-2.741-6.078-2.799-6.68-1.1-9.842-8.853-6.688-7.491 5.708 1.266 3.594"/><path fill="none" stroke="#000" stroke-width=".5" stroke-miterlimit="10" d="M305.5 280.625s3.125 16.5 3.125 18.625-.25 5.5-1.562 7.625-4.438 6.875-4.312 8.375 1.246 5.375 2.936 7 2.814 7.25 2.939 8.875-2.375 21.25-2.375 21.25-2.758 25.125-3.504 26.375-3.246 13-3.871 14.375-4 8.396-5 9.698-3.625 1.739-5.125 1.989-6.085.48-8.46.98-12.25 1-13 1.125-7.396 0-8.198 0c-.802 0-5.927-.514-7.052.057-1.125.569-5.5 1.943-5 2.943s1.875 4.125 4.75 4.125 6.967.375 9.046 0 9.204-1.625 10.954-1.625 7.773.581 10.648.831 12.686.752 14.561.627 7.75-1.375 9.125-1.25 6 .75 7.125.125 2.625-2.625 2.875-5.125-.125-12.125 0-13.25 1-17.5 1.25-19.125 3.5-22 3.5-23.875 2.875-18.625 3.125-20.25 3-14.75 3.625-15.875.357-9.743-.406-11.812c-.75-2.03-5.469-11.188-5.469-12.688s-.875-12.625-.875-12.625l-10.25-6.875-5.125 9.375z"/><path fill="none" stroke="#000" stroke-width=".5" stroke-linecap="round" stroke-linejoin="round" stroke-miterlimit="10" d="M249.582 410.333s2.417.417 3.083 0 2.583-.749 3.083-.833 2.667.268 3.75.509"/><path fill="none" stroke="#000" stroke-width=".5" stroke-linecap="round" stroke-miterlimit="10" d="M312.877 290s-.002 4.5.873 5.75.5 8 .75 9.375-.621 5.375-1.623 6.625-1.252 6.625-.877 8.875 1.502 10.75 1.188 12c-.313 1.25-.519 12.125-1.354 12.875M308.981 400.504s.25 2.875 0 4-3.625 3.25-5.25 3.625"/><path fill="#D19A93" d="M261.875 279s3 6.5 3.25 7.625 1.75 6.5 1.875 7.125.5 5 .75 5.5 1.125 3.25 1.25 3.625-1.5 4-1.75 5.375-1.125 9.25-1.125 10-.125 6.125.375 6.75 1.5 5.75 1.5 6.875-2.559 13.875-2.559 13.875-3.816 12.375-3.566 13.125-3.125 14.5-3.25 15.625-2.25 8.5-3.375 10.5-3.25 6.375-4.75 7.625-4.875 4.75-5.25 6.25-1.75 5-2.75 5.625-6.25 2.5-8 2.625-9.75 1.25-11.125 1.25-8 .875-9.125 1-4.5-1-5.75 0-4.5 1.5-5.125 2.75.375 2 1.125 2.75 5.25.875 7.375 1 10.75.625 12.125.625 8-.875 10.25-.875 9.75-.875 11.625-.875 8.875-.25 10.375-.375 5.625-.125 6.5-.125 2.875-.5 4-.625 2.875-3.375 3-4.125.25-7.625 0-9 .125-8.75.75-11.875 1.625-12 2.375-13.25 3.25-12.375 3.875-14.25 3.25-17.25 4.5-19.375 3.75-13.5 4.75-15.25 2.75-11 3.375-12.875-.25-8.375-1.375-10.375-3.25-5.75-3.75-8S279.5 285 279 282.5s-17.125-3.5-17.125-3.5"/><path fill="#BA756E" d="M264.609 285.092l2.141 6.458.386 3.339s.914 7.391 1.864 7.986 3.614 5.939 3.319 6.844c-.237.729-1.582 6.535-1.051 7.473.531.938 1.96 6.471 4.148 8.56 1.833 1.75 4.166 9.834 5.5 10.334.202.075 1.855 1.331 2.105.429.187-.677.539-2.318.878-3.191.866-2.232 3.665-14.07 3.893-14.068.5.005 1.787-7.251 1.787-7.251l-.83-6.655-1.263-3.011-3.058-6.435-1.615-4.321-3.282-6.735-12.281-3.348h-3.906l1.265 3.592"/><path fill="none" stroke="#000" stroke-width=".5" stroke-linecap="round" stroke-miterlimit="10" d="M262.416 386.916s-.75 3.584-1.083 4.584-1.666 4.334-1.833 5-.083 2.332.667 2.916 2.667 2.417 2.75 3.667"/><path fill="none" stroke="#000" stroke-width=".5" stroke-linecap="round" stroke-linejoin="round" stroke-miterlimit="10" d="M271.75 297.752s1.25 6.25 1.417 8-1.25 4.666-1.417 6-.75 4.501-.417 5.834.417 9.916.5 11.333-.833 10.916-1.417 11.833"/><path fill="none" stroke="#000" stroke-width=".5" stroke-miterlimit="10" d="M261.875 279s3 6.5 3.25 7.625 1.75 6.5 1.875 7.125.5 5 .75 5.5 1.125 3.25 1.25 3.625-1.5 4-1.75 5.375-1.125 9.25-1.125 10-.125 6.125.375 6.75 1.5 5.75 1.5 6.875-2.559 13.875-2.559 13.875-3.816 12.375-3.566 13.125-3.125 14.5-3.25 15.625-2.25 8.5-3.375 10.5-3.25 6.375-4.75 7.625-4.875 4.75-5.25 6.25-1.75 5-2.75 5.625-6.25 2.5-8 2.625-9.75 1.25-11.125 1.25-8 .875-9.125 1-4.5-1-5.75 0-4.5 1.5-5.125 2.75.375 2 1.125 2.75 5.25.875 7.375 1 10.75.625 12.125.625 8-.875 10.25-.875 9.75-.875 11.625-.875 8.875-.25 10.375-.375 5.625-.125 6.5-.125 2.875-.5 4-.625 2.875-3.375 3-4.125.25-7.625 0-9 .125-8.75.75-11.875 1.625-12 2.375-13.25 3.25-12.375 3.875-14.25 3.25-17.25 4.5-19.375 3.75-13.5 4.75-15.25 2.75-11 3.375-12.875-.25-8.375-1.375-10.375-3.25-5.75-3.75-8S279.5 285 279 282.5s-17.125-3.5-17.125-3.5"/><g><path fill="#422015" d="M263.166 280.75s3.417 1.417 3.667 1.917 4.333 4.668 4.667 5.584.167-1.584.583-1.334 1.667.406 2.083 1.536 0-2.369.5-2.036 2.083 1.834 2.083 1.834-.417-2.334.5-1.751 5.083 3.5 5.083 3.5-1.25-3.001-.583-2.667 2.25 1.834 2.25 1.834-2.25-4.666-3-5.75-.416-1.917.417-1.167-.667-3.916 0-4.083c.666-.167 3.068-1.17 3.583-.584s2.083-6.166 2.083-6.166l-6.833-7.5-14.25-1.834-6 4.167-.5 7.667 3.667 6.833z"/><path fill="none" stroke="#000" stroke-width=".5" stroke-linejoin="round" stroke-miterlimit="10" d="M263.166 280.75s3.417 1.417 3.667 1.917 4.333 4.668 4.667 5.584.167-1.584.583-1.334 1.667.406 2.083 1.536 0-2.369.5-2.036 2.083 1.834 2.083 1.834-.417-2.334.5-1.751 5.083 3.5 5.083 3.5-1.25-3.001-.583-2.667 2.25 1.834 2.25 1.834-2.25-4.666-3-5.75-.416-1.917.417-1.167-.667-3.916 0-4.083 3.069-1.17 3.583-.584 2.083-6.166 2.083-6.166l-6.833-7.5-14.25-1.834-6 4.167-.5 7.667 3.667 6.833z"/><path fill="#422015" d="M305.25 277.584s4-.25 4.25 0 3.5.249 3.833.916 1.25-1.361 1.75-.514.833 2.514 1.5 3.514.166-1.333 1.083-.833 1.834 2.083 1.834 2.083-.167-1.582 1.083-.666 2.999 2.916 3.083 3.416.333-2.084 0-2.25-1.582-2.834-1.666-3.5 1.252-.667 1.834-.75-2.668-2.668-3.168-2.959-1.417-1.874-1.25-2.624S321 272.5 321 272.25s-2.001-1.916-1.584-2.583 1.584-1.416 1.917-1.083 1.583.916 1.583.916-1.082-1.416-.666-1.583 3.333 0 3.333 0-1.083-1.666-1.25-2.083-.166-1.834.417-2.084 2.416 0 2.416 0-.833-1.542-1.083-1.938c-.25-.396-.333-1.312 0-1.396s2.565-.241 2.565-.241l-4.565-5.509H311.5l-14.395 13.75 8.145 9.168z"/><path fill="none" stroke="#000" stroke-width=".5" stroke-miterlimit="10" d="M305.25 277.584s4-.25 4.25 0 3.5.249 3.833.916 1.25-1.361 1.75-.514.833 2.514 1.5 3.514.166-1.333 1.083-.833 1.834 2.083 1.834 2.083-.167-1.582 1.083-.666 2.999 2.916 3.083 3.416.333-2.084 0-2.25-1.582-2.834-1.666-3.5 1.252-.667 1.834-.75-2.668-2.668-3.168-2.959-1.417-1.874-1.25-2.624S321 272.5 321 272.25s-2.001-1.916-1.584-2.583 1.584-1.416 1.917-1.083 1.583.916 1.583.916-1.082-1.416-.666-1.583 3.333 0 3.333 0-1.083-1.666-1.25-2.083-.166-1.834.417-2.084 2.416 0 2.416 0-.833-1.542-1.083-1.938c-.25-.396-.333-1.312 0-1.396s2.565-.241 2.565-.241l-4.565-5.509H311.5l-14.395 13.75 8.145 9.168z"/><path fill="#494646" d="M353.465 253.293s1.829-3.041 3.662-3.208-3.5-3.834-3.5-3.834l-5.542.917 1 4.167 4.38 1.958z"/><path fill="none" stroke="#000" stroke-width=".5" stroke-miterlimit="10" d="M353.465 253.794s1.453-3.897 4.329-3.709c1.837.12-3.5-3.834-3.5-3.834l-5.542.917 1 4.167 3.713 2.459z"/><path fill="#494949" d="M359.666 250.686s2.396-3.312 5.146-3.584c2.75-.271-3.021-2.354-3.021-2.354h-3.968l.321 3.646 1.522 2.292z"/><path fill="none" stroke="#000" stroke-width=".5" stroke-miterlimit="10" d="M360.021 250.562s2.396-3.313 5.146-3.584c2.75-.271-3.021-2.354-3.021-2.354h-3.969l.322 3.646 1.522 2.292z"/></g><g><path fill="#2D2C2C" d="M125.46 95.693c-.219.562-3.25 2.25-3.25 2.25s2.938-.312 3.438-.562-1.812 1.938-1.812 1.938 2.625-.875 3.25-1.125-.375 1.538-.375 1.538 4.781 0 5.156 1.118 3.219-6.281 3.219-6.281l-6.438-3.312c-.001-.001-2.969 3.874-3.188 4.436z"/><path fill="none" stroke="#000" stroke-width=".5" stroke-miterlimit="10" d="M125.46 95.822c-.219.562-3.25 2.25-3.25 2.25s2.938-.312 3.438-.562-1.812 1.938-1.812 1.938 2.625-.875 3.25-1.125-.375 1.538-.375 1.538 4.781 0 5.156 1.118 3.219-6.281 3.219-6.281l-6.438-3.312c-.001-.001-2.969 3.874-3.188 4.436z"/></g><g><path fill="#C61414" d="M114.083 67.332s-2.917 5.25-4.083 6.25-5.917 5.167-6.917 6-7.667 6.583-8.583 7.167-7.417 5.5-9.083 6.583-9.584 5.996-10.5 6.496-9.417 6.25-10.167 6.917-7.833 5.75-8.25 6.167-11.997 8.333-12.581 8.666-8.667 6-9.167 6.417-6.165 5.332-6.832 5.749-5 3.333-5.333 3.75-2.544 2.716-3 4c-.396 1.116-1.206 3.534-.75 3.833.456.299 6.25 0 6.25 0s4.53-.498 6-1.167c1.354-.616 10.785-4.99 11.583-5.333 1.342-.577 12.667-5.917 13.25-6.25s10.5-4.917 10.917-5.25 9.167-4.833 9.75-5.25 9.916-7.001 10.166-7.251 11.917-7.75 12.333-7.917 9.166-4.917 9.583-5 7.916-3.749 9-4.166 5-1.75 5.833-2 6.473-2.085 7.417-2.5c1.122-.494 4.583-14.25 4.583-14.25l-14.75-9.583-6.669-2.078z"/></g><g><path fill="#911" d="M19.167 145.459s.854-1.542 2.519-1.873c2.149-.426 8.521-4.476 10.646-5.476s8.418-4.736 10.793-5.611c2.604-.959 7.397-2.248 8.772-2.873S62 124 63.625 122.75s10-5.375 12.75-6.5.844-3.248 4.219-4.624 5.86.128 7.656.499c1.969.406 1.733.531-1.812 2.688-4.772 2.903-6.494 5.617-11.844 8.5-5.219 2.812-9.43 5.422-17.406 8.688-7.938 3.25-13.071 6.18-18.406 8.625-4.806 2.203-9.615 4.181-11.719 4.469-1.08.146-7.896.364-7.896.364z"/></g><g><path fill="none" stroke="#000" stroke-width=".5" stroke-miterlimit="10" d="M114.083 67.332s-2.917 5.25-4.083 6.25-5.917 5.167-6.917 6-7.667 6.583-8.583 7.167-7.417 5.5-9.083 6.583-9.584 5.996-10.5 6.496-9.417 6.25-10.167 6.917-7.833 5.75-8.25 6.167-11.997 8.333-12.581 8.666-8.667 6-9.167 6.417-6.165 5.332-6.832 5.749-5 3.333-5.333 3.75-2.544 2.716-3 4c-.396 1.116-1.206 3.534-.75 3.833.456.299 6.25 0 6.25 0s4.53-.498 6-1.167c1.354-.616 10.785-4.99 11.583-5.333 1.342-.577 12.667-5.917 13.25-6.25s10.5-4.917 10.917-5.25 9.167-4.833 9.75-5.25 9.916-7.001 10.166-7.251 11.917-7.75 12.333-7.917 9.166-4.917 9.583-5 7.916-3.749 9-4.166 5-1.75 5.833-2 6.473-2.085 7.417-2.5c1.122-.494 4.583-14.25 4.583-14.25l-14.75-9.583-6.669-2.078z"/><path fill="none" stroke="#000" stroke-width=".5" stroke-miterlimit="10" d="M97.417 92.749c-.229-.124.99-1.842 2.167-2.167.791-.218 3.042-1.363 3.917-1.917 1.008-.638 4.333-3.167 4.833-3.583s2.584-2.25 2.917-2.5 1.917-.76 2.167-.417c.583.804-.5 2-.917 2.583s-2.667 1.833-3.417 2.25-3.204 1.471-3.663 1.75c-.622.378-1.583.832-2.42 1.333-.844.505-2.71 1.486-3.167 1.75-.834.481-2.071.896-2.417.918z"/><path fill="#422525" d="M97.417 92.749c-.229-.124.99-1.842 2.167-2.167.791-.218 3.042-1.363 3.917-1.917 1.008-.638 4.333-3.167 4.833-3.583s2.584-2.25 2.917-2.5 1.917-.76 2.167-.417c.583.804-.5 2-.917 2.583s-2.667 1.833-3.417 2.25-3.204 1.471-3.663 1.75c-.622.378-1.583.832-2.42 1.333-.844.505-2.71 1.486-3.167 1.75-.834.481-2.071.896-2.417.918z"/><path fill="none" stroke="#000" stroke-width=".5" stroke-miterlimit="10" d="M126.126 78.166c.208-.937-.25 1.167-.542 1.417s-2.667 1.833-3.25 2.25-3.334 2.667-3.792 2.875-3 2.51-3.417 2.692-3.958 2.266-4.375 2.516-3.292 1.916-3.875 2.333-5.083 3.584-5.458 4.001-4.041 2.5-4.458 2.792-6.084 3.127-7.001 3.793-7.584 4.625-8.167 5.292-8.708 6.042-10.583 6.75-5.167 3.167-5.75 3.583-14.75 9.042-15.292 9.417-13.042 7.5-13.876 7.875-8.501 5.167-9.001 5.542-7.159 2.48-8.454 4.032M125.584 79.582s2.665.766 2.291.689"/></g><g fill="#1E1E1E"><path d="M542.668 214.914s3.834 2.334 5 3.084 5.666 2.75 6.833 3.25 5.001 1.666 5.417 1.833-.084 1.334-.667 1.667-4.667 3.167-5.417 3.5-6.082 1.332-7.666 1.416-7.918-.416-8.834-.916-6.082-2.834-6.666-2.917-4.583-2.499-5-2.833-5.251-2.666-6.084-3-5.332-2.167-6.166-2.417-3.54-1.584-4.479-1.917c-.939-.333-4.605-2.582-5.188-2.666s18.583-5.083 18.583-5.083l11.917-1 3.583 1.083s3.834 6.916 4.834 6.916z"/><path stroke="#000" stroke-width=".5" stroke-miterlimit="10" d="M542.668 214.914s3.834 2.334 5 3.084 5.666 2.75 6.833 3.25 5.001 1.666 5.417 1.833-.084 1.334-.667 1.667-4.667 3.167-5.417 3.5-6.082 1.332-7.666 1.416-7.918-.416-8.834-.916-6.082-2.834-6.666-2.917-4.583-2.499-5-2.833-5.251-2.666-6.084-3-5.332-2.167-6.166-2.417-3.54-1.584-4.479-1.917c-.939-.333-4.605-2.582-5.188-2.666s18.583-5.083 18.583-5.083l11.917-1 3.583 1.083s3.834 6.916 4.834 6.916z"/><path d="M531.084 211.298s10 .366 11.667 1.116 5.5 1.501 6.5 1.834 5.333 1.75 6.583 2 4.666.917 5.5 1 1.666-.416 1.75 0-.25.833-1.083 1.083-4.443.499-5.597.333c-1.154-.166-3.82-1.082-4.653-1.166s-4.833-.751-6-.834-6-.667-7.5-.75-6.251-.166-7.667-.083-7.167.334-8.5.167-5.999-.25-7.166-.5-3.918-.834-5.834-1.834S524.918 210 524.918 210l6.166 1.298zM550.167 206.583s3.25.25 4.25 0 3.418 0 4.084.583c.666.584 4.332 2.501 4.666 2.834s1.334 1.083.667 1.25-3.249-.167-4.083 0-2.917-.814-3.667-.907c-.75-.093-2.001-.74-3.417 0s-3.916-1.009-3.916-1.009l1.416-2.751z"/><path stroke="#000" stroke-width=".5" stroke-miterlimit="10" d="M550.167 206.583s3.25.25 4.25 0 3.418 0 4.084.583 4.332 2.5 4.666 2.833 1.334 1.083.667 1.25-3.249-.167-4.083 0-2.917-.814-3.667-.907c-.75-.093-2.001-.74-3.417 0s-3.916-1.009-3.916-1.009l1.416-2.75zM531.084 211.298s10 .366 11.667 1.116 5.5 1.501 6.5 1.834 5.333 1.75 6.583 2 4.666.917 5.5 1 1.666-.416 1.75 0-.25.833-1.083 1.083-4.443.499-5.597.333c-1.154-.166-3.82-1.082-4.653-1.166s-4.833-.751-6-.834-6-.667-7.5-.75-6.251-.166-7.667-.083-7.167.334-8.5.167-5.999-.25-7.166-.5-3.918-.834-5.834-1.834S524.918 210 524.918 210l6.166 1.298z"/></g><g><path fill="#C7C7C7" d="M142.167 183.334s5.333 14.667 6.333 15.5 5.5 6.834 6.167 8 4.5 8.334 5.333 9.5 9.167 11.832 10.5 12.666 11.5 10.834 12.667 11.667 14.333 11.167 15.667 11.5 11.833 6.501 14 7.167 10.334 4.5 11.667 4.667 7.833.5 8.667 1 5.5 1.167 6.167 1.667 6.167 2.166 7.333 2.333 3.667.999 4.667 1.333 1.333-.667 2.5 0 3.5 2.668 4.167 3.334 1.833 2.5 2.249 3.583 1.417 4.082 2 4.666.833 1 1.167 1.75.417-1.5.833-1 .667 1.153.667 1.153 0-1.653.75-1.403-1.916-3.749.417-4.166 1.083-.667 1.083-.667-3-1.834-3.667-1.917.917-1.75.917-1.75-1.583-1.082-2.167-1.916.75-.334.75-.334-.167-2.416.583-2.833 2.25-.667 3-.417 3.167.584 3.5 1.084 1.083 1.25 1.083 1.25-.5-1.833.417-2 1.5-.751 2.583-.584 2.833.833 3.5 1.25 1.917 1.418 2.5 2.084 1.167 2.333 1.75 2.333 1.917.167 1.917.167-1.25.416-1 1.083 1 1.667 1.5 2.5 1.083 1.833 1.083 1.833-.333-1.084.333-1.75 1.333-.416 2 .084 1.583 1.333 1.583 1.333-.667-2.167 0-2.167 2.177.417 2.177.417-1.344-1.167-1.761-2.25-.333-2.251.25-2.667 1.25.334 2 .917 2 3.25 2 3.25v-2.917s1.001 1.251 1.667 2.334 3.083 5 2.833 6.333.833-2.417 1.333-2.917.918.084 1.084 1.167-.334-2.333.916-.833 2.5 3.749 2.917 4.916 1.25 3.584 1.25 3.584-.25-4.584.75-5.167 2.417 2.083 2.417 2.083-.416-3 .5-3.5 2.166 2.334 2.166 2.334.416-1.834 0-3.167.185-3.25.185-3.25-1.018-.502-1.685-.418-1.417-.833-2-1.333-1.748-.916-2.332-.833-1.334-.668-1.667-1.084-1.084-2.416.083-2.916 2.25-.418 3-.334 1.666.001 2-.166-1.082-1.166-.416-1.75 2.916-1.001 3.416-.834 1.5.75 1.5.75.5-1.334 0-2-1.083-2.25-1.083-2.25.667.251 1.667.334 2.249-.418 3.416-.084 1.001-.834 1.584-1.75 1.417-1.833 1.75-1.833.582-1.167.916-1.667 2.083-.25 3 .167 4.334.667 4.334.667-1.584-.917-1.584-1.417.584-1.167 1.084-1.667 2.583-.5 2.583-.5 6.417-.582 7.25.084-.667-1.836 0-2.002 4.583-.583 5.5.667-.666-1.333.667-1.5 7.333 2.917 7.333 2.917-.25-1.751 0-2.334 2.75.417 2.75.417-.834-1.334-.75-1.917-2.416-1.749-2.333-2.416 2.935-.334 3.634-.084 5.366 1.25 5.366 1.25-.083-1.25 0-2-1.333-2.334-.75-3 1.167.333 2.167.75 4.416-.083 5.666.667 4.917 3.667 4.917 3.667-.333-1.75 0-2.25 3.168.416 4.168.916 6 .917 6.833 2.25-.416-2 1.584-2.25 3.333-.5 4.333-.5 4.417 1.416 4.417 1.416-1.083-2.166 0-2.583 2.749-.334 3.083-.167 2.667 1.834 2.667 1.834-1.666-1.916-1.583-3.5 1.25-3.084 2.083-3.667 1.501-.833 2.917-1.083 4.833.083 4.833.083l3.25.667s-1.667-.666-1.5-1.5.833-1.219 1.916-1.609c1.083-.392 5.25-.56 5.25-.56s-1.157-1.548-.407-2.298 4.333-2.614 5.5-2.781 5.084-1.864 6.75-2.781 7.991-1.64 9.491-2.224 9.584-2.918 11-3.334 4.083-.916 4.083-.916 1.333-2.25 3-2.75-46.418-3.527-46.418-3.527L344 204.25l-80.75-2-75-11.75 3-30.571 20.25-19.044-12.75-17.385-18.25-7.25-27.378 5.75-15.622 28.244 4.667 33.09z"/><path fill="#FFF" d="M189.668 193.544s3.333 5.334 9 12 .511 7.676 4.511 14.676S209.333 231 210 237.334c.667 6.332 13.001 9.543 17.335 14.877s5.149 6.58 5.575 12.789c.066.971-7.333-.832-8.667-1-1.333-.166-9.5-4-11.667-4.666s-12.667-6.834-14-7.168c-1.333-.332-14.5-10.666-15.667-11.5-1.167-.832-11.333-10.832-12.667-11.666s-9.667-11.5-10.5-12.666-4.667-8.334-5.333-9.5-5.167-7.167-6.167-8-6.333-15.5-6.333-15.5l-4.667-33.09L152.863 122l27.378-5.75 18.25 7.25 12.75 17.385-20.25 19.045-3 30.57 1.677 3.044z"/><path fill="none" stroke="#000" stroke-width=".5" stroke-miterlimit="10" d="M142.167 183.334s5.333 14.667 6.333 15.5 5.5 6.833 6.167 8 4.5 8.334 5.333 9.5 9.167 11.832 10.5 12.666 11.5 10.834 12.667 11.667 14.333 11.167 15.667 11.5 11.833 6.501 14 7.167 10.334 4.5 11.667 4.667 7.833.5 8.667 1 5.5 1.167 6.167 1.667 6.167 2.166 7.333 2.333 3.667.999 4.667 1.333 1.333-.667 2.5 0 3.5 2.668 4.167 3.334 1.833 2.5 2.249 3.583 1.417 4.082 2 4.666.833 1 1.167 1.75.417-1.5.833-1 .558.995.667 1.153c.24.352 0-1.653.75-1.403s-1.916-3.749.417-4.166 1.083-.667 1.083-.667-3-1.834-3.667-1.917.911-1.536.917-1.75c-.245-.433-1.583-1.082-2.167-1.916s.625-.401.75-.334-.167-2.416.583-2.833 2.25-.667 3-.417 3.167.584 3.5 1.084 1.26 1.702 1.083 1.25c.068-.157-.5-1.833.417-2s1.5-.751 2.583-.584 2.833.833 3.5 1.25 1.917 1.418 2.5 2.084 1.167 2.333 1.75 2.333 1.917.167 1.917.167-1.25.416-1 1.083 1 1.667 1.5 2.5 1.123 1.979 1.229 2.104c.374.437-.479-1.354.188-2.021s1.333-.416 2 .084 1.583 1.333 1.583 1.333-.667-2.167 0-2.167 2.177.417 2.177.417-1.344-1.167-1.761-2.25-.333-2.251.25-2.667 1.25.334 2 .917 2 3.25 2 3.25v-2.917s1.001 1.251 1.667 2.334 2.796 5.656 2.833 6.333c.048.866.833-2.417 1.333-2.917s.918.084 1.084 1.167-.334-2.333.916-.833 2.5 3.749 2.917 4.916.945 2.704 1.25 3.584c.427 1.233-.25-4.584.75-5.167s2.417 2.083 2.417 2.083-.416-3 .5-3.5 2.166 2.334 2.166 2.334.416-1.834 0-3.167.185-3.25.185-3.25-1.018-.502-1.685-.418-1.417-.833-2-1.333-1.749-.916-2.333-.833-1.334-.668-1.667-1.084-1.084-2.416.083-2.916 2.25-.418 3-.334 1.666.001 2-.166-1.082-1.166-.416-1.75 2.916-1.001 3.416-.834 1.5.75 1.5.75.5-1.334 0-2-1.083-2.25-1.083-2.25.667.251 1.667.334 2.249-.418 3.416-.084 1.001-.834 1.584-1.75 1.417-1.833 1.75-1.833.582-1.167.916-1.667 2.083-.25 3 .167 4.334.667 4.334.667-1.584-.917-1.584-1.417.584-1.167 1.084-1.667 2.583-.5 2.583-.5 6.417-.582 7.25.084-.667-1.836 0-2.002 4.583-.583 5.5.667-.666-1.333.667-1.5 7.333 2.917 7.333 2.917-.25-1.751 0-2.334 2.75.417 2.75.417-.834-1.334-.75-1.917-2.416-1.749-2.333-2.416 2.935-.334 3.634-.084 5.366 1.25 5.366 1.25-.083-1.25 0-2-1.333-2.334-.75-3 1.167.333 2.167.75 4.416-.083 5.666.667 4.917 3.667 4.917 3.667-.333-1.75 0-2.25 3.168.416 4.168.916 6 .917 6.833 2.25-.416-2 1.584-2.25 3.333-.5 4.333-.5 4.417 1.416 4.417 1.416-1.083-2.166 0-2.583 2.749-.334 3.083-.167 3.304 2.693 2.667 1.834-1.666-1.916-1.583-3.5 1.25-3.084 2.083-3.667 1.501-.833 2.917-1.083 4.833.083 4.833.083 3.931 1.11 3.759.653c-.094-.25-2.176-.652-2.009-1.486s.833-1.219 1.916-1.609c1.083-.392 5.25-.56 5.25-.56s-1.157-1.548-.407-2.298 4.146-2.771 5.312-2.938 5.271-1.708 6.938-2.625 7.991-1.64 9.491-2.224 9.584-2.918 11-3.334 3.155-.635 4.013-1.234c.833-.583 1.403-1.932 3.07-2.432s-46.418-3.527-46.418-3.527L344 204.25l-80.75-2-75-11.75 3-30.571 20.25-19.044-12.75-17.385-18.25-7.25-27.378 5.75-15.622 28.244 4.667 33.09z"/></g><g><path fill="#564437" d="M248.125 232.449s10.05 9.238 14.625 10.551c6.573 1.884 13 3.251 23.125 1.625 11.309-1.816 15.243-.989 20.708-1.125 5.86-.146 7.959.708 14.584.083 7.461-.704 29.889 1.792 44.389-1 7.144-1.375 16.257-4.521 19.507-5.083 2.797-.484 8.041.167 10.875-.625s7.521-1.259 9.521-1.425 1.166.584 0 1.959-1.499 1.815-.166 2.429-5.334.112-7.167 1.279-1.667 2.416-1.667 3.458-3.5.877-4 1.626-2.999 1.249-4.666 2.416-1 2.019-1 2.019l8.052.981c2.047-3.055 4.892-.477 5.32-.992.328-.609-3.32-4.797.294-6.05 4.227-1.466 12.744-.718 11.636-1.591-1.25-.984-1.635-3.426.198-3.146 1.833.28 5.802.051 5.802.051s-1.969-2.771.531-3.104 5.833-3.667 14.833-6.167c5.021-1.395 19.07-5.726 19.76-5.836 0 0 2.063-2.874 6.073-3.164 3.589-.26-44.666 1.5-44.666 1.5l-43-10.056-61.833 2.722-45.334 8.501"/></g><g fill="#5E5E5E"><path d="M505.489 190.527s4.386 1.35 4.948 1.537c.562.187 9 1.062 9.625 1.062s16.812-.125 18.25 0c1.438.125 10.312.375 11.375.312 1.062-.063 6.938.812 8 1.25 1.062.438 5.25 2.312 5.688 2.688s2.938 1.75 3.062 2.312c.123.562-.438 2.625-.938 2.812s-2.75.438-3.188.625c-.438.187-.875.625-1.25.688s-4.188 0-4.375.312c-.187.312-1.562.562-2.062.688s-1.562 1.938-1.25 2.562-1 1-1.062 1.688c-.062.688.562 1.875.875 2.312.312.437.125.938.125.938s-4.875-.312-5.688-.312-5.25-.25-5.562-.312c-.312-.062-4.5-.062-5.312.062s-5.375.625-5.875.562-6.938.562-7.75.5-11.438 1.5-12.25 1.688-5.75 1.188-5.875 1.625-1-1.312-2.188-.812c-1.188.5-1.438 1.188-1.438 1.375s-2.75-.438-2.875 0-3.312.062-3.5.562-2.281.062-3 .375c-.719.313-1.375.406-1.406.719-.03.313-3.812.095-3.875.812-.062.718-3.905.155-4.125.812-.219.656-4.125.035-4.375.439s-4.219.279-4.25.873c-.03.594-4.062 0-4.594.812s-4.5-.062-4.625.47c-.125.53-3.219.094-3.406.562-.187.468-3.438.375-3.562.78-.124.406-3.719-.094-3.906.312s-3.5-.25-3.656.188c-.156.438-2.719.031-2.812.595s-3.375-.095-3.625.405-3.75.031-3.812.5c-.062.47-2.905-.094-3.125.345-.219.438-3.469-.095-3.625.438-.155.531-3.655-.25-3.905.405-.25.656-4.095-.03-4.438.438s-3.719-.438-4.219.469-4.125.094-4.406.594-3.969-.5-4.156 0c-.187.5-3.5.219-3.655.562-.156.343-2.688-.562-2.812 0-.124.562-2.938.094-3.156.719-.218.625-4.438-.531-5.406.156s-4.905-.469-5.469.562c-.562 1.031-3.562-.405-4.219.595s-4.5-.281-4.812.188c-.312.469-3.655 1.75-3.655 1.75s.883-2.729 1.562-2.656c3.241.35 3.469-2.156 3.469-2.156s3.312.5 3.781-.188.531-1.656.062-1.812c-.469-.155-1.594-.094-1.594-.094s-1.47.656-1.47.844c0 .188-.875-.906-.875-.906s-1.125-.062-1.405.095c-.281.155-.375.844-.312 1.125.062.28.594 1.188.594 1.188s-1.25-.688-1.688-.562c-.438.126-1.438 1.094-1.438 1.094l-1.625-1.156-1.75-.344-1.594.781-1.438-1.031-1.78-.344s-1.5.5-1.531 1-1.812-1.469-1.812-1.469l-1.5-.656s-1.031.281-1 .844c.03.563-2.906-2-2.906-2s-1.25 0-1.25.625-1.844-1.062-1.844-1.062-1.595.155-1.531.688c.062.532-2.25-1.844-2.25-1.844s-1.531-.25-1.562.344c-.031.595-1.875-1.53-1.875-1.53s-2.344-.595-1.938.844c.406 1.438-2.094-.469-2.344-.344s-1.47 1.375-1.25 2.125c.219.75-2.375.062-2.375.062s-1.062.781-1.031 1.281-1.844-.625-2.156-.595c-.312.031-1.344.906-1.281 1.47.063.562-2.062-1.22-2.062-1.22s-1.656-.25-1.438.875c.219 1.125-1.781-.438-2.031-.562s-1.344.531-1.375 1.188c-.03.656-1.75-1.47-1.75-1.47s-1.78-.875-2.03-.125-1.531-2.655-1.531-2.655-1.438-.75-1.812-.188c-.375.562-.906 1.625-.906 1.625s-1.406.094-.906 1.219 2.375 2.562 2.469 2.625c.094.063-1.188.25-1.156.688.032.438.47 1.844.47 1.844s-1.438-.781-1.688-.031-1.031 2.062-1.438 2.688c-.407.626-1.031-1.438-1.375-1.845-.344-.405-2.188-1.094-2.5-.344-.312.75-1.125-2.312-1.469-2.719-.345-.407-2.031-.812-2.312.031-.281.843-1.031-1.469-1.906-1.812-.875-.343-3.375.594-3.125 1.625s-.312.344-.719.188c-.407-.156-.719 1.03-.531 1.938.188.906-2.562-1.875-2.562-1.875s-1.281 0-1.438 1.094c-.156 1.094-1.062.031-1.531-.125-.469-.156-1.312.469-1.219 1.469.094 1-1.812-.781-2.25-1.062-.438-.281-1.531-.281-1.812.438-.281.719-2.345-1.5-2.938-1.812-.594-.312-3.188-.312-2.125 2.594 1.063 2.906-1.375-1.312-1.875-1.469-.5-.158-2.031.125-1.875 1.219.156 1.094-1.719.594-1.719.594s-.938.781-.844 1.656c.094.875-2.375-1.125-2.812-1.219-.437-.095-1.312.405-1.281.969.031.562-1.281-.088-1.438.644s-.25 1.888-.25 1.888-1.75-.906-2.25-1-1.562.312-1.594.75c-.032.438-1.938-.625-2.125-.781-.188-.155-1.219.095-1.188.531.031.438-1.625-1.219-1.875-1.375s-1 0-1.031.562-1.844-.625-2.219-.75-2.25-.156-1.562.969-.781.719-.781.719 0 1.688.719 2.5-2-.531-2-.531-.594.25-.562.562c.032.312-2.188-1.094-2.188-1.094s-.875.062-.906.688c-.031.627-1.594-1.375-2.062-1.406-.468-.03-1.438.47-.969 1.22s.906 1.312.906 1.312-1.875-1.25-2.125-.969-.656.812-.531 1.312-1.219.312-1.75 0c-.531-.312-1.188.156-1 .938.188.782-2.375-1.031-2.375-1.031s-1.719.422-1.406 1.228c.313.805-2.281-1.195-2.281-1.195s-1.688.156-1.219 1.095c.469.938-2.312-1.438-2.312-1.438s-1.312.125-.938 1.125-2.594-1.188-3.094-1.375-1.281 1.125-1.281 1.125-2.188-1.062-2.625-1.345c-.437-.281-1.875-.062-1.625.781.25.844-1.875-.531-2.062-.688-.187-.157-1.344-.281-1 .75.344 1.031-2.344-1.156-2.344-1.156s-1.156.156-1.062.688c.094.533-2.062-.905-2.062-.905s-1.844-.625-1.625.155c.219.781-1.656-1.312-1.656-1.312s-1.344-1.405-1.531-.5c-.187.906-.781-.25-1.25-.469-.469-.22-3.156-.5-3.156-.5s-.344-.97-.5-1.281c-.156-.312-2.812-.312-2.812-.312s.438-.906 0-1.312-2.406-.469-2.406-.469.469-.844 0-1.188c-.469-.345-3.344-.562-3.344-.562s.406-.875-.188-1.375c-.594-.5-3-.656-3-.656s.5-.594 0-1.156c-.5-.562-3-.688-3-.688s.969-.656.594-1.062-2.969-1-2.969-1 .281-.688 0-1.156c-.281-.467-2.844-1.062-2.844-1.062s.531-.905 0-1.375c-.531-.469-3.413-1.571-3.413-1.571s.438-.688 0-1.188-3.438-1.919-3.438-1.919.781-.706.469-1.237c-.312-.531-2.656-1.688-2.656-1.688s.719-.5.562-.844c-.157-.344-3.125-2.062-3.125-2.062s1.594-1.031 1.281-1.531-3.281-2-3.281-2 1.125-.531.812-1.031-3.031-1.594-3.031-1.594 1.219-.875.875-1.312c-.344-.437-3.906-1.375-3.906-1.375s1.188-.719.906-1.062c-.282-.343-3.094-1.562-3.188-1.562-.094 0 1.406-.888 1-1.193-.406-.307-3.438-2.494-3.438-2.494s1.594-.094 1.188-.812c-.406-.718-3.156-2.594-3.156-2.594s1.656.094 1.406-.656-2.625-3.031-2.625-3.031 1.312.125 1.25-.594c-.062-.719-1.905-3.408-1.905-3.408s1 .312 1.594 0c.594-.312.5-1.594.5-1.594s.312.781.906.844 1.219-2.625 1.219-2.625.688.844 1.094.594.812-2.906-.094-3.906 1.312.5 1.312-.25-1.156-3.906-1.156-3.906 1.094.5 1.344 0-1.156-3.531-1.156-3.531 1.062.188 1-.281c-.062-.469-.125-1.25-1.062-2.062s-6.75-7.094-6.75-7.094 2.438.625 3.719.281c1.281-.344.469-1.281.469-1.281s1.594.406 1.875 0c.281-.406-.25-1.5-.25-1.5s2.594.469 3.062.188c.468-.281-.438-2.062-.438-2.062s2.719.594 3.156.375c.437-.219.219-1.438.219-1.438s2.312.344 2.594 0c.282-.344-.219-2.031-.219-2.031s2.719.062 2.906-.25.094-1.844.094-1.844 2.25.625 2.531 0c.281-.625.25-3.531.25-3.531s1.5 1.344 2.562.875c1.062-.469.25-2.844.25-2.844s1.031.375 1.75.469c.719.094 1.906-2.625 1.906-2.625s.719 1.656.781 1.906 1.406-2.188 1.406-2.188 1.344.25 1.625 0c.281-.25-.094-1-.094-1s1.094.375 1.125 0c.031-.375-1.781-.781-1.781-.781s.75-.531.531-.875c-.219-.344-2.469-.312-2.469-.312s1.188-.688.781-.938c-.407-.25-2.219 0-2.219 0s.281-.719 0-1.219c-.281-.5-1.5.281-1.5.281s.656-.719.406-1.062c-.25-.343-2.406-.312-2.406-.312s1.062-.594.656-1-1.531.219-1.531.219.781-1.25.469-1.625-1.719.188-1.719.188.75-1.656.656-2.656c-.094-1-1.594.5-1.594.5s.625-1.969.312-2.969-1.5.219-1.5.219.156-1.5-.344-2.375l-.5-.875s-1.5 1.5-1.5 1.625.062-.844-.312-1.469-.906.906-.906.906.406-1.75-.25-2.969c-.656-1.219-.844-1.781-1.281-1.438-.437.343-.625.781-.5 1.094s.906.406.906.406-.25.844-.062 1.312c.188.468-1.406.25-1.156.469.25.219.875.656.875.656s-1.469-.156-2 .5c-.531.656.719 1.344.719 1.344s-1.734.219-2.789.375c-1.055.156-.68.625-.305.844.375.219 1.094.781 1.094.781s-2.344-.406-2.562-.5c-.218-.094-1.062-.844-1.219-.438-.157.406 1.062 1.844 1.062 1.844s-1.281-.625-2.031-.781c-.75-.156-2.188-.312-2.062.062.126.374 1.25 1.5 1.25 1.5l-2.594-.781s-.719-.312-1.156-.781c-.437-.469-1.344-.312-1.031.25.313.562-1.625-.719-1.625-.719s.625 1.75.875 2.469c.25.719.031 3.094.031 3.094s0-.906-.75-1.562-.844-.344-.844-.344l.344 5.938s-.469-.875-1.188-1.594c-.719-.719-1.188.875-1.188.875l-2-1.906s-.031 3.906-.719 4.406-.438-1.406-.906-1.875c-.468-.469-.5 2.031-1 2.375-.5.344-1-1.406-1-1.406s.125 3.156-.438 3.719-.875-1.469-.875-1.469-.375 5.031-.75 5.75c-.375.719-.938 1.312-.938 1.312s.5-1.844-3.375-3.469-6.312-2.906-6.312-2.906l29.69-44.784 50.888-37.34 8.875 2.75s7.375 4.5 8.125 4.875 5.875 1 7.125 1.375 12.875 4.875 15 5.625 16.125 5.375 17.75 5.75 9.875 2.25 11 2.875 9.624 3.875 10.624 4.125 15.25 5 16.75 5.75 11.5 5 12.75 5.5 12.125 5.25 13 5.625 16.875 9.75 17.75 10.125 11.625 7.125 12.125 7.75 14.375 9.25 15 9.625 10.625 9 11 9.625 11.125 10.625 19.625 14.375 20.25 9.875 20.625 10.25 12.125 5.875 15.75 7 17.375 7.5 19.75 8.375 12.375 4.375 12.375 4.375 14.5 3.625 15.5 4.375 8.875 5.5 9.75 6 3.612 1.373 4.612 1.873 4.25 4.25 4.125 5.125-4 4.125-5 4.25-3.875.75-4.25.875-.125 1.186-.875 1.592c-.75.408-4.75-.906-6.625 0-1.875.908-7.125 1.283-7.625 1.783s-4.875.75-5.375.875-4.375.5-4.875.625-5.125 0-5.125 0"/><path stroke="#230F06" stroke-width=".5" stroke-miterlimit="10" d="M505.489 190.338s4.386 1.349 4.948 1.537c.562.188 9 1.062 9.625 1.062s16.812-.125 18.25 0c1.438.125 10.312.375 11.375.312 1.062-.063 6.938.812 8 1.25 1.062.438 5.25 2.312 5.688 2.688s2.938 1.75 3.062 2.312c.123.562-.438 2.625-.938 2.812s-2.75.438-3.188.625c-.438.187-.875.625-1.25.688s-4.188 0-4.375.312c-.187.312-1.562.562-2.062.688s-1.562 1.938-1.25 2.562-1 1-1.062 1.688c-.062.688.562 1.875.875 2.312.312.437.125.938.125.938s-4.875-.312-5.688-.312-5.25-.25-5.562-.312c-.312-.062-4.5-.062-5.312.062s-5.375.625-5.875.562-6.938.562-7.75.5-11.438 1.5-12.25 1.688-5.75 1.188-5.875 1.625-1-1.312-2.188-.812c-1.188.5-1.438 1.188-1.438 1.375s-2.75-.438-2.875 0-3.312.062-3.5.562c-.188.5-2.281.062-3 .375s-1.375.406-1.406.719c-.03.312-3.812.094-3.875.812-.062.718-3.905.156-4.125.812-.219.656-4.125.035-4.375.439s-4.219.279-4.25.873c-.03.594-4.062 0-4.594.812s-4.5-.062-4.625.469-3.219.094-3.406.562c-.187.467-3.438.375-3.562.78-.124.406-3.719-.094-3.906.312-.188.406-3.5-.25-3.656.188s-2.719.031-2.812.595c-.093.562-3.375-.095-3.625.405s-3.75.031-3.812.5c-.062.47-2.905-.094-3.125.345-.219.438-3.469-.095-3.625.438-.155.531-3.655-.25-3.905.406s-4.095-.031-4.438.438-3.719-.438-4.219.469c-.5.907-4.125.094-4.406.594s-3.969-.5-4.156 0c-.187.5-3.5.22-3.655.562-.156.344-2.688-.562-2.812 0s-2.938.094-3.156.719c-.218.625-4.438-.531-5.406.156-.968.688-4.905-.469-5.469.562-.562 1.031-3.564-.404-4.221.596s-4.5-.281-4.812.188c-.312.47-3.655 1.75-3.655 1.75s.883-2.729 1.562-2.655c3.241.349 3.469-2.156 3.469-2.156s3.312.5 3.781-.188c.469-.688.531-1.655.062-1.812s-1.594-.094-1.594-.094-1.47.655-1.47.844-.875-.906-.875-.906-1.125-.062-1.405.095c-.281.155-.375.844-.312 1.125.062.28.594 1.188.594 1.188s-1.25-.688-1.688-.562c-.438.127-1.438 1.095-1.438 1.095l-1.625-1.156-1.75-.344-1.594.78-1.438-1.03-1.78-.345s-1.5.5-1.531 1-1.812-1.469-1.812-1.469l-1.5-.656s-1.031.281-1 .845c.03.563-2.906-2-2.906-2s-1.25 0-1.25.625-1.844-1.062-1.844-1.062-1.595.155-1.531.688c.062.531-2.25-1.844-2.25-1.844s-1.531-.25-1.562.344-1.875-1.531-1.875-1.531-2.344-.594-1.938.844c.406 1.438-2.094-.469-2.344-.344s-1.47 1.375-1.25 2.125c.219.75-2.375.062-2.375.062s-1.062.781-1.031 1.281-1.844-.625-2.156-.595c-.312.031-1.344.906-1.281 1.47.063.562-2.062-1.22-2.062-1.22s-1.656-.25-1.438.875c.219 1.125-1.781-.438-2.031-.562-.25-.125-1.344.531-1.375 1.188-.03.657-1.75-1.469-1.75-1.469s-1.78-.875-2.03-.125-1.531-2.656-1.531-2.656-1.438-.75-1.812-.188c-.375.562-.906 1.625-.906 1.625s-1.406.094-.906 1.219 2.375 2.562 2.469 2.625-1.188.25-1.156.688c.032.438.47 1.844.47 1.844s-1.438-.78-1.688-.03-1.031 2.062-1.438 2.688c-.407.625-1.031-1.438-1.375-1.845-.344-.405-2.188-1.094-2.5-.344-.312.75-1.125-2.312-1.469-2.72-.345-.406-2.031-.812-2.312.031-.281.844-1.031-1.469-1.906-1.812s-3.375.594-3.125 1.625c.25 1.03-.312.344-.719.188-.407-.156-.719 1.03-.531 1.938.188.906-2.562-1.875-2.562-1.875s-1.281 0-1.438 1.094c-.156 1.094-1.062.031-1.531-.125-.469-.156-1.312.469-1.219 1.469.094 1-1.812-.781-2.25-1.062-.438-.281-1.531-.281-1.812.438-.281.719-2.345-1.5-2.938-1.812s-3.188-.312-2.125 2.594c1.063 2.906-1.375-1.312-1.875-1.469s-2.031.125-1.875 1.219c.156 1.094-1.719.594-1.719.594s-.938.781-.844 1.656c.094.875-2.375-1.125-2.812-1.219-.437-.094-1.312.406-1.281.969s-1.281-.088-1.438.645c-.157.731-.25 1.888-.25 1.888s-1.75-.906-2.25-1-1.562.312-1.594.75c-.032.438-1.938-.625-2.125-.781-.188-.155-1.219.095-1.188.531.031.437-1.625-1.219-1.875-1.375s-1 0-1.031.562c-.031.562-1.844-.625-2.219-.75s-2.25-.156-1.562.969-.781.72-.781.72 0 1.688.719 2.5-2-.531-2-.531-.594.25-.562.562c.032.312-2.188-1.094-2.188-1.094s-.875.062-.906.688-1.594-1.375-2.062-1.406c-.468-.03-1.438.47-.969 1.22s.906 1.312.906 1.312-1.875-1.25-2.125-.97c-.25.281-.656.812-.531 1.312s-1.219.312-1.75 0c-.531-.312-1.188.156-1 .938.188.783-2.375-1.03-2.375-1.03s-1.719.422-1.406 1.228c.313.805-2.281-1.195-2.281-1.195s-1.688.156-1.219 1.094-2.312-1.438-2.312-1.438-1.312.125-.938 1.125-2.594-1.188-3.094-1.375c-.5-.188-1.281 1.125-1.281 1.125s-2.188-1.062-2.625-1.345-1.875-.062-1.625.781-1.875-.531-2.062-.688c-.187-.156-1.344-.281-1 .75.344 1.031-2.344-1.156-2.344-1.156s-1.156.156-1.062.688c.094.532-2.062-.905-2.062-.905s-1.844-.625-1.625.155c.219.781-1.656-1.312-1.656-1.312s-1.344-1.406-1.531-.5-.781-.25-1.25-.469c-.469-.22-3.156-.5-3.156-.5s-.344-.97-.5-1.281c-.156-.312-2.812-.312-2.812-.312s.438-.906 0-1.312-2.406-.47-2.406-.47.469-.844 0-1.188-3.344-.562-3.344-.562.406-.875-.188-1.375c-.594-.5-3-.655-3-.655s.5-.595 0-1.156-3-.688-3-.688.969-.655.594-1.062-2.969-1-2.969-1 .281-.688 0-1.156c-.281-.468-2.844-1.062-2.844-1.062s.531-.906 0-1.375-3.411-1.574-3.411-1.574.438-.688 0-1.188-3.438-1.919-3.438-1.919.781-.706.469-1.237c-.312-.531-2.656-1.688-2.656-1.688s.719-.5.562-.844c-.157-.344-3.125-2.062-3.125-2.062s1.594-1.031 1.281-1.531-3.281-2-3.281-2 1.125-.531.812-1.031-3.031-1.594-3.031-1.594 1.219-.875.875-1.312c-.344-.437-3.906-1.375-3.906-1.375s1.188-.719.906-1.062c-.282-.343-3.094-1.562-3.188-1.562-.094 0 1.406-.888 1-1.194-.406-.306-3.438-2.494-3.438-2.494s1.594-.094 1.188-.812c-.406-.718-3.156-2.594-3.156-2.594s1.656.094 1.406-.656-2.625-3.031-2.625-3.031 1.312.125 1.25-.594c-.062-.719-1.905-3.407-1.905-3.407s1 .312 1.594 0c.594-.312.5-1.594.5-1.594s.312.781.906.844 1.219-2.625 1.219-2.625.688.844 1.094.594.812-2.906-.094-3.906 1.312.5 1.312-.25-1.156-3.906-1.156-3.906 1.094.5 1.344 0-1.156-3.531-1.156-3.531 1.062.188 1-.281c-.062-.469-.125-1.25-1.062-2.062-.937-.812-6.75-7.094-6.75-7.094s2.438.625 3.719.281c1.281-.344.469-1.281.469-1.281s1.594.406 1.875 0-.25-1.5-.25-1.5 2.594.469 3.062.188-.438-2.062-.438-2.062 2.719.594 3.156.375c.437-.219.219-1.438.219-1.438s2.312.344 2.594 0c.282-.344-.219-2.031-.219-2.031s2.719.062 2.906-.25c.187-.312.094-1.844.094-1.844s2.25.625 2.531 0c.281-.625.25-3.531.25-3.531s1.5 1.344 2.562.875c1.062-.469.25-2.844.25-2.844s1.031.375 1.75.469c.719.094 1.906-2.625 1.906-2.625s.719 1.656.781 1.906 1.406-2.188 1.406-2.188 1.344.25 1.625 0c.281-.25-.094-1-.094-1s1.094.375 1.125 0c.031-.375-1.781-.781-1.781-.781s.75-.531.531-.875c-.219-.344-2.469-.312-2.469-.312s1.188-.688.781-.938c-.407-.25-2.219 0-2.219 0s.281-.719 0-1.219c-.281-.5-1.5.281-1.5.281s.656-.719.406-1.062c-.25-.343-2.406-.312-2.406-.312s1.062-.594.656-1-1.531.219-1.531.219.781-1.25.469-1.625-1.719.188-1.719.188.75-1.656.656-2.656c-.094-1-1.594.5-1.594.5s.625-1.969.312-2.969-1.5.219-1.5.219.156-1.5-.344-2.375l-.5-.875s-1.5 1.5-1.5 1.625.062-.844-.312-1.469-.906.906-.906.906.406-1.75-.25-2.969c-.656-1.219-.844-1.781-1.281-1.438-.437.343-.625.781-.5 1.094.125.313.906.406.906.406s-.25.844-.062 1.312-1.406.25-1.156.469c.25.219.875.656.875.656s-1.469-.156-2 .5c-.531.656.719 1.344.719 1.344s-1.734.219-2.789.375c-1.055.156-.68.625-.305.844s1.094.781 1.094.781-2.344-.406-2.562-.5c-.218-.094-1.062-.844-1.219-.438-.157.406 1.062 1.844 1.062 1.844s-1.281-.625-2.031-.781c-.75-.156-2.188-.312-2.062.062s1.25 1.5 1.25 1.5l-2.594-.781s-.719-.312-1.156-.781c-.437-.469-1.344-.312-1.031.25.313.562-1.625-.719-1.625-.719s.625 1.75.875 2.469c.25.719.031 3.094.031 3.094s0-.906-.75-1.562-.844-.344-.844-.344l.344 5.938s-.469-.875-1.188-1.594c-.719-.719-1.186.872-1.186.872l-2-1.906s-.031 3.906-.719 4.406c-.688.5-.438-1.406-.906-1.875s-.5 2.031-1 2.375-1-1.406-1-1.406.125 3.156-.438 3.719-.875-1.469-.875-1.469-.375 5.031-.75 5.75c-.375.719-.938 1.312-.938 1.312s.5-1.844-3.375-3.469-6.312-2.906-6.312-2.906L174.5 97.75l50.888-37.34 8.875 2.75s7.375 4.5 8.125 4.875 5.875 1 7.125 1.375 12.875 4.875 15 5.625 16.125 5.375 17.75 5.75 9.875 2.25 11 2.875 9.624 3.875 10.624 4.125 15.25 5 16.75 5.75 11.5 5 12.75 5.5 12.125 5.25 13 5.625 16.875 9.75 17.75 10.125 11.625 7.125 12.125 7.75 14.375 9.25 15 9.625 10.625 9 11 9.625 11.125 10.625 19.625 14.375 20.25 9.875 20.625 10.25 12.125 5.875 15.75 7 17.375 7.5 19.75 8.375 12.375 4.375 12.375 4.375 14.5 3.625 15.5 4.375 8.875 5.5 9.75 6 3.612 1.373 4.612 1.873 4.25 4.25 4.125 5.125-4 4.125-5 4.25-3.875.75-4.25.875-.125 1.186-.875 1.592c-.75.408-4.75-.906-6.625 0-1.875.908-7.125 1.283-7.625 1.783s-4.875.75-5.375.875-4.375.5-4.875.625-5.125 0-5.125 0"/><path d="M145.875 169.281c.143.829-.938.406-.938.406s2 2.875 2.125 3.188-1.188 0-1.188 0 1.562 3.438 1.625 3.875-1.312 0-1.312 0 1.125 4.938 1.188 5.312-1.438-.938-1.438-.938 1.688 4.25 1.875 4.875-1.438-.625-1.438-.625 2 3.375 2.062 4.125-1.438 0-1.438 0 1.125 3.188 1.25 4-1.25-.812-1.25-.812-.375 2.062-.312 3.562-1.625-3.625-1.625-3.625-1.25.125-1.188.688-1.062-3.812-1.062-3.812-1.062.875-.938 1.438-1.061-3.938-1.061-3.938-.688.812-.625 1.125-.875-4.125-.875-4.125-1 2.062-.875 2.25-1.375-6.438-1.062-6.375-1.312 1-1.25 1.312-1.062-4.688-1.062-4.688-1.25.938-1 1.438-.438-5-.438-5-1.625 1.562-1.562 1.938-.875-5.562-.875-5.562-1.125 1.688-.938 2.188-.5-5.438-.5-5.438-1.188.812-.938 1.125-.625-5.25-.625-5.25-1 1.5-.938 1.688-.625-4.875-.625-4.875-1.312 1.062-1.188 1.375.188-4.875.188-4.875-1.688.312-1.5.562.625-5.438.625-5.438-1.625 1-1.5 1.25.188-5.688.188-5.688-1.312.188-1.312.688.25-3.875.25-3.875-1.875.25-1.875.625 1.562-3 1.562-3-2.062-.375-2.062 0 2.5-3.562 2.5-3.562-2.375-.188-2.438.25 2.312-3.875 2.312-4.5-2.125.25-2.125.25 1.875-2.625 2.062-3.188-1.625.25-1.625.25 1.562-2.062 1.625-2.562-1.938.062-1.938.062 2.812-3.625 3.125-4.375-1.688-.062-1.688-.062 4.356-4.125 4.366-4.625c.01-.5-2.241-.188-2.241-.188s3-2.562 3.375-3.125-2.062-.688-2.062-.688 3.438-4.312 3.875-4.75-2.312-.467-2.312-.467 4.25-3.783 4.562-4.22-2-.25-2-.25 2.812-2.938 2.938-3.562-1.5.125-1.5.125.562-2.562.688-3.5-1 .188-1 .188-.102-1.296-.156-2.376c-.021-.413-.157-1.811-.719-2.186-.622-.192-1.25-1.125-2.188-1s-1.75-1.875-1.75-1.875l-1 1.438s-.062-2.563 0-3.313 1.062-2.188 1.062-2.375 3.875-1.875 3.875-1.875h-2.812l4.375-2.438-1.125-.75 2.875-.812-.688-.75 2.938-.438-3.268-.651v-1.062l-3.418.337-.438-1.25h-4.625l-.312-1.625-1.312.688-2.768-3.109-.92 1.672-1.25-3.5-1.062 1.062v-4.062l-1.25.938-.479-1.231s-.583-1.702-1.083-2.204 1.083 0 1.083 0-1.22-3.252-1.183-3.44c.037-.188 1.184 0 1.184 0s-.723-3.717-1.185-4.296.61-.829.61-.829-.702-4.25-.762-4.812 1.002 0 1.002 0 .562-6.25 1.25-6.25 1.188.75 1.188.75 1.375-4.625 1.75-4.938 1.25.686 1.25.686 1.188-4.123 2.25-4.873 1.088 1.421 1.088 1.421 2.037-5.671 2.662-6.046.688 1.562.688 1.562 3.062-4.625 4.188-5 .312 1.5.312 1.5 4.812-3.688 5.625-3.5.5 1.25.5 1.25 4.75-3.812 5.625-3.75.422 1.25.422 1.25S146.312 23 147.188 23s.37 1.25.37 1.25 5.067-2 5.692-1.938 0 1.312 0 1.312 6.5-2.25 7.438-1.875-.494 1.5-.494 1.5 6.619-1.948 7.557-1.537 0 1.349 0 1.349 4.812-.5 5.375-.75 0 .938 0 .938 4.625-.375 5.062-.562.375 1.125.375 1.125 3.875.062 4.312-.062 0 1.062 0 1.062 3.812.625 4.75.75.375 1 .375 1 3.625.438 4.125.75.312 1.25.312 1.25 4.688.5 5.438.438 0 1 0 1 5 1.188 5.562 1.375-.375 1.375-.375 1.375 6.5.812 7.25.75 0 1 0 1 3 1.312 3.688 1.312-.5.938-.5.938 5.188 2.125 5.75 2.125-.875 1.125-.875 1.125 5.438 2.438 6.062 2.375-1 1.062-1 1.062 5.938 2.938 6.312 3.562-.938.875-.938.875 4.875 2.625 6 2.5-.375 1-.375 1 3.688 1.312 4 1.562-.938 1-.938 1 1.5.875 2.062 1-1.062 1.125-1.062 1.125 1.875 1.938 2.375 2.25-1.312.625-1.312.625.75 1.062 1.125 1.438-1.436 1.126-1.436 1.126 1.562 2.562 2 2.875-2.062-.125-2.062-.125.479.751.375 1-3.938-.438-3.938-.438 1.75 3.312 1.875 4.25-3.75-2.312-3.75-2.312.375 1.658.312 2.454-2.188-2.079-2.188-2.079.188 2.375-.188 3.062-1.312-2-1.312-2-.499 3.813-.936 4.813-1.875-1.75-1.875-1.75.188 2.812-.25 3.688-1.938-2.375-1.938-2.375-.75 3.812-1.625 4.875-1.5-2.125-1.5-2.125-.812 2.625-1.062 3.438-1.312-2.438-1.312-2.438.062 3.562-.312 4.312-1.812-2.375-1.812-2.375.688 4.438.062 5.188-1.562-3.062-1.562-3.062-1.312 4.312-1.812 5.062-.75-3.125-.75-3.125-1.188 4.062-1.812 4.625-.375-2.562-.938-2.062-2.625 3.25-3.062 4 .125-2.688-.438-2.438-1.5 3.125-1.875 3.562-.062-2.812-.375-2.375S204 91.438 203.562 92s-.375-2.562-.625-2.062-1.938 3.438-2.25 3.875S200.375 91 200 91.75s-2.438 3.938-3.5 4.75-.25-2.125-.875-1.562-3.375 3.188-3.875 3.812.125-2.625-.25-2.062-4.438 3.688-5.188 4.375-.125-1.875-.562-1.5-3.125 3.188-3.75 4.188-.5-1.25-.938-.812-1.312 2.312-1.375 3.062-.625-1.062-.875-.75-.812 1.75-1.125 2.438-.812-.75-1-.438-1.938 2.812-1.875 3.375-.938-1.125-.938-1.125-1.812 3.562-1.75 3.75-.625-1.375-.625-1.375-1.562 3.312-1.562 4-1.188-1.188-1.188-1.188-1.375 3.188-1.062 3.938-1.187-2.126-1.187-2.126-1.188 3.312-1 4.25-1.438-.812-1.438-.812-1.188 3-1 3.75-1.125-1.062-1.125-1.062-.688 3.812-.562 4.5-1.438-.75-1.438-.75-.562 3.75-.312 4.188-1.625-.439-1.625-.439-1 4-.625 4.75-1.75-.625-1.75-.625-.938 2.75-.5 3.562-1-1.562-1-1.562-.75 3.25-.25 4-1.188 0-1.188 0 .688 3.812.875 4.062-1.312-.5-1.312-.5.062 5.438.562 6.188-1.688-1-1.688-1 1 3.5 1.375 4.25-1.062 0-1.062 0 .5 2.562.625 3.375-1.5-1-1.5-1-.562 3.562-.438 4.25-1.25-1.375-1.25-1.375.625 3.438.312 4.25-1.062-.562-1.062-.562-.5 2.812-.312 3.125-1.188-1.125-1.188-1.125.625 1.812.688 2.25-1.906-1.625-1.906-1.625"/><path stroke="#190902" stroke-width=".5" stroke-miterlimit="10" d="M490.625 190.5s7.125 4.5 8 5.875.375 5.625 0 6-4.125 1.875-4.875 2.5-3.25-.625-4.25 0-2 1-2.625 1.125-3.75-.75-4 0-8.75.5-10.5.75-4.625.125-5.5 0-8-1.5-8.625-1.125-3.875.25-3.875.25"/><path stroke="#0C0502" stroke-width=".5" stroke-miterlimit="10" d="M482.875 206s1.75 3.248 1.688 4.343c-.062 1.095.062 3.22-.25 3.782-.312.562-2.438 2.875-3.312 3.187s-4.75.938-5.25 1.312-1.625.875-1.938.875c-.313 0-2.25-.75-2.75-.688-.5.062-3.125.188-3.5.375-.375.188-6.312.188-7 .312-.688.124-5.25-.375-5.438-.375s-1.875.938-3.625 1.062c-1.75.123-6.125-.125-6.375-.438s-4.062.062-6.312-.25-8.375-2.188-9.312-2.125-9.375-2.375-9.938-2.938c-.563-.563-8.375-2.25-10.438-5.938"/><path stroke="#110703" stroke-width=".5" stroke-miterlimit="10" d="M399.25 161.875s4.875 1 5.75 2 5.125 4.375 5.75 4.875 4.25 4.125 5 5.125 1.75 2.75 1.875 3.375-.625 2.25-1.125 2.375-2.25 1.25-2.125 2-1.625 1.75-2.125 1.875-3 .375-3.125 1.125-3.375 2.25-4 2.375-4.75.5-5.875.5"/><path stroke="#070403" stroke-width=".5" stroke-miterlimit="10" d="M414.375 181.625s3.25 2.625 4.125 3.875 4 3.75 4.5 4.125 1.25 3.625 1.375 4.625-1 4.145-1.5 4.447c-.5.302-3.5.428-4.125 1.178s-1.125 2.625-2.125 3.5-6.75 2.875-7.5 2.625-2.625-.707-4 .021-8.875-.646-10.25-.771-9.625-4.75-10.125-5.125-8.609-4.125-9.867-3.625"/><path stroke="#000" stroke-width=".5" stroke-linecap="round" stroke-miterlimit="10" d="M167.01 140.885s.5.99 0 1.74-1.375 1.25-1.625 2 .5 1.625 0 2-2.5.875-2.5.875M159.26 145.326s.125 1.424 0 2.174-1.375.75-1.25 1.375-.75 1.108-1.5 1.179M160.76 157.625S159.246 159 159.316 160c.07 1-.875 1.75-1.403 2.125s-1.278-.375-2.403 0M152.51 164.875s1.375 1.875 0 2.125-2.25 0-2.25 0"/><path stroke="#020101" stroke-width=".5" stroke-linecap="round" stroke-miterlimit="10" d="M174.431 134.625s-.099.102 0 1.25c.111 1.292-.931 2.5-.931 3.375s-1.444 1.75-2.069 1.625"/><path stroke="#000" stroke-width=".5" stroke-miterlimit="10" d="M278.375 141.75s3.625 1 4.125 2.375 4 2.75 4.875 3.125 4.625 2.375 5.875 3.25 2.75 4.125 3 5.375-1.625 2.125-2.875 2.25-2.875-1.375-3.125 0-2.478 2-2.926 2.375c-.448.375-3.699.25-5.074 0s-4.125-1.375-4.5-1.875-1.875-1.875-2.5-1.75-1.125 1.125-1.75 2-2.375 1.75-3.75 1.25-3.75.349-4.5.612M129.625 93.312c-.622-.192-1.25-1.125-2.188-1s-1.75-1.875-1.75-1.875l-1 1.438s-.062-2.563 0-3.313 1.062-2.188 1.062-2.375 3.875-1.875 3.875-1.875h-2.812l4.375-2.438-1.125-.75 2.875-.812-.688-.75 2.938-.438-3.268-.651v-1.062l-3.419.339-.438-1.25h-4.625l-.312-1.625-1.312.688-2.768-3.109-.92 1.672-1.25-3.5-1.062 1.062v-4.062l-1.25.938-.479-1.231s-.583-1.702-1.083-2.204 1.083 0 1.083 0-1.22-3.252-1.183-3.44c.037-.188 1.184 0 1.184 0s-.723-3.717-1.185-4.296.61-.829.61-.829-.702-4.25-.762-4.812 1.002 0 1.002 0 .562-6.25 1.25-6.25 1.188.75 1.188.75 1.375-4.625 1.75-4.938 1.25.686 1.25.686 1.188-4.123 2.25-4.873 1.088 1.421 1.088 1.421 2.037-5.671 2.662-6.046.688 1.562.688 1.562 3.062-4.625 4.188-5 .312 1.5.312 1.5 4.812-3.688 5.625-3.5.5 1.25.5 1.25 4.75-3.812 5.625-3.75.422 1.25.422 1.25S146.312 23 147.188 23s.37 1.25.37 1.25 5.067-2 5.692-1.938 0 1.312 0 1.312 6.5-2.25 7.438-1.875-.494 1.5-.494 1.5 6.619-1.948 7.557-1.537 0 1.349 0 1.349 4.812-.5 5.375-.75 0 .938 0 .938 4.625-.375 5.062-.562.375 1.125.375 1.125 3.875.062 4.312-.062 0 1.062 0 1.062 3.812.625 4.75.75.375 1 .375 1 3.625.438 4.125.75.312 1.25.312 1.25 4.688.5 5.438.438 0 1 0 1 5 1.188 5.562 1.375-.375 1.375-.375 1.375 6.5.812 7.25.75 0 1 0 1 3 1.312 3.688 1.312-.5.938-.5.938 5.188 2.125 5.75 2.125-.875 1.125-.875 1.125 5.438 2.438 6.062 2.375-1 1.062-1 1.062 5.938 2.938 6.312 3.562-.938.875-.938.875 4.875 2.625 6 2.5-.375 1-.375 1 3.688 1.312 4 1.562-.938 1-.938 1 1.5.875 2.062 1-1.062 1.125-1.062 1.125 1.875 1.938 2.375 2.25-1.312.625-1.312.625.75 1.062 1.125 1.438-1.436 1.126-1.436 1.126 1.562 2.562 2 2.875-2.062-.125-2.062-.125.479.751.375 1-3.938-.438-3.938-.438 1.75 3.312 1.875 4.25-3.75-2.312-3.75-2.312.375 1.658.312 2.454-2.188-2.079-2.188-2.079.188 2.375-.188 3.062-1.312-2-1.312-2-.499 3.813-.936 4.813-1.875-1.75-1.875-1.75.188 2.812-.25 3.688-1.938-2.375-1.938-2.375-.75 3.812-1.625 4.875-1.5-2.125-1.5-2.125-.812 2.625-1.062 3.438-1.312-2.438-1.312-2.438.062 3.562-.312 4.312-1.812-2.375-1.812-2.375.688 4.438.062 5.188-1.562-3.062-1.562-3.062-1.312 4.312-1.812 5.062-.75-3.125-.75-3.125-1.188 4.062-1.812 4.625-.375-2.562-.938-2.062-2.625 3.25-3.062 4 .125-2.688-.438-2.438-1.5 3.125-1.875 3.562-.062-2.812-.375-2.375S204 91.438 203.562 92s-.375-2.562-.625-2.062-1.938 3.438-2.25 3.875S200.375 91 200 91.75s-2.438 3.938-3.5 4.75-.25-2.125-.875-1.562-3.375 3.188-3.875 3.812.125-2.625-.25-2.062-4.438 3.688-5.188 4.375-.125-1.875-.562-1.5-3.125 3.188-3.75 4.188-.5-1.25-.938-.812-1.312 2.312-1.375 3.062-.625-1.062-.875-.75-.812 1.75-1.125 2.438-.812-.75-1-.438-1.938 2.812-1.875 3.375-.938-1.125-.938-1.125-1.812 3.562-1.75 3.75-.625-1.375-.625-1.375-1.562 3.312-1.562 4-1.188-1.188-1.188-1.188-1.375 3.188-1.062 3.938-1.187-2.126-1.187-2.126-1.188 3.312-1 4.25-1.438-.812-1.438-.812-1.188 3-1 3.75-1.125-1.062-1.125-1.062-.688 3.812-.562 4.5-1.438-.75-1.438-.75-.562 3.75-.312 4.188-1.625-.439-1.625-.439-1 4-.625 4.75-1.75-.625-1.75-.625-.938 2.75-.5 3.562-1-1.562-1-1.562-.75 3.25-.25 4-1.188 0-1.188 0 .688 3.812.875 4.062-1.312-.5-1.312-.5.062 5.438.562 6.188-1.688-1-1.688-1 1 3.5 1.375 4.25-1.062 0-1.062 0 .5 2.562.625 3.375-1.5-1-1.5-1-.562 3.562-.438 4.25-1.25-1.375-1.25-1.375.625 3.438.312 4.25-1.062-.562-1.062-.562-.5 2.812-.312 3.125-1.188-1.125-1.188-1.125.625 1.812.688 2.25-2.281-1.5-2.281-1.5 1.031 3.812 1.156 4.438c.165.825-1.25.312-1.25.312s2 2.875 2.125 3.188-1.188 0-1.188 0 1.562 3.438 1.625 3.875-1.312 0-1.312 0 1.125 4.938 1.188 5.312-1.438-.938-1.438-.938 1.688 4.25 1.875 4.875-1.438-.625-1.438-.625 2 3.375 2.062 4.125-1.438 0-1.438 0 1.125 3.188 1.25 4-1.25-.812-1.25-.812-.375 2.062-.312 3.562-1.625-3.625-1.625-3.625-1.25.125-1.188.688-1.062-3.812-1.062-3.812-1.062.875-.938 1.438-1.061-3.939-1.061-3.939-.688.812-.625 1.125-.875-4.125-.875-4.125-1 2.062-.875 2.25-1.375-6.438-1.062-6.375-1.312 1-1.25 1.312-1.062-4.688-1.062-4.688-1.25.938-1 1.438-.438-5-.438-5-1.625 1.562-1.562 1.938-.875-5.562-.875-5.562-1.125 1.688-.938 2.188-.5-5.438-.5-5.438-1.188.812-.938 1.125-.625-5.25-.625-5.25-1 1.5-.938 1.688-.625-4.875-.625-4.875-1.312 1.062-1.188 1.375.188-4.875.188-4.875-1.688.312-1.5.562.625-5.438.625-5.438-1.625 1-1.5 1.25.188-5.688.188-5.688-1.312.188-1.312.688.25-3.875.25-3.875-1.875.25-1.875.625 1.562-3 1.562-3-2.062-.375-2.062 0 2.5-3.562 2.5-3.562-2.375-.188-2.438.25 2.312-3.875 2.312-4.5-2.125.25-2.125.25 1.875-2.625 2.062-3.188-1.625.25-1.625.25 1.562-2.062 1.625-2.562-1.938.062-1.938.062 2.812-3.625 3.125-4.375-1.688-.062-1.688-.062 4.356-4.125 4.366-4.625c.01-.5-2.241-.188-2.241-.188s3-2.562 3.375-3.125-2.062-.688-2.062-.688 3.438-4.312 3.875-4.75-2.312-.467-2.312-.467 4.25-3.783 4.562-4.22-2-.25-2-.25 2.812-2.938 2.938-3.562-1.5.125-1.5.125.562-2.562.688-3.5-1 .188-1 .188-.102-1.296-.156-2.376c-.019-.415-.155-1.812-.718-2.188z"/></g><g><path fill="#44403D" d="M165.059 114.167c1.97-5.147-2.151-6.885-2.174-9.5-.046-5.424 6.011-10.577 8.948-15.666 3.559-6.167 8.833-9 10.667-17.349 2.101-9.568-.022-18.047-3.125-23.499-3.443-6.048-14.811-8.064-14.39-10.528.957-5.604 8.14-15.312 8.14-15.312.562-.25 0 .938 0 .938s4.625-.375 5.062-.562.375 1.125.375 1.125 3.875.062 4.312-.062 0 1.062 0 1.062 3.812.625 4.75.75.375 1 .375 1 3.625.438 4.125.75.312 1.25.312 1.25 4.688.5 5.438.438 0 1 0 1 5 1.188 5.562 1.375-.375 1.375-.375 1.375 6.5.812 7.25.75 0 1 0 1 3 1.312 3.688 1.312-.5.938-.5.938 5.188 2.125 5.75 2.125-.874 1.123-.874 1.123 5.438 2.438 6.062 2.375-1 1.062-1 1.062 5.938 2.938 6.312 3.562-.938.875-.938.875 4.875 2.625 6 2.5-.375 1-.375 1 3.688 1.312 4 1.562-.938 1-.938 1 1.5.875 2.062 1-1.062 1.125-1.062 1.125 1.875 1.938 2.375 2.25-1.312.625-1.312.625.75 1.062 1.125 1.438-1.436 1.126-1.436 1.126 1.562 2.562 2 2.875-2.062-.125-2.062-.125.479.751.375 1-3.938-.438-3.938-.438 1.75 3.312 1.875 4.25-3.75-2.312-3.75-2.312.375 1.658.312 2.454-2.188-2.079-2.188-2.079.188 2.375-.188 3.062-1.312-2-1.312-2-.499 3.813-.936 4.813-1.875-1.75-1.875-1.75.188 2.812-.25 3.688-1.938-2.375-1.938-2.375-.75 3.812-1.625 4.875-1.5-2.125-1.5-2.125-.812 2.625-1.062 3.438-1.312-2.438-1.312-2.438.062 3.562-.312 4.312-1.812-2.375-1.812-2.375.688 4.438.062 5.188-1.562-3.062-1.562-3.062-1.312 4.312-1.812 5.062-.75-3.125-.75-3.125-1.188 4.062-1.812 4.625-.375-2.562-.938-2.062-2.625 3.25-3.062 4 .125-2.688-.438-2.438-1.5 3.125-1.875 3.562-.062-2.812-.375-2.375S204 91.438 203.562 92s-.375-2.562-.625-2.062-1.938 3.438-2.25 3.875S200.375 91 200 91.75s-2.438 3.938-3.5 4.75-.25-2.125-.875-1.562-3.375 3.188-3.875 3.812.125-2.625-.25-2.062-4.438 3.688-5.188 4.375-.125-1.875-.562-1.5-3.125 3.188-3.75 4.188-.5-1.25-.938-.812-1.312 2.312-1.375 3.062-.625-1.062-.875-.75-.812 1.75-1.125 2.438-.812-.75-1-.438-1.938 2.812-1.875 3.375-.938-1.125-.938-1.125-1.812 3.562-1.75 3.75-.625-1.375-.625-1.375-1.562 3.312-1.562 4-1.188-1.188-1.188-1.188-1.375 3.188-1.062 3.938-1.187-2.126-1.187-2.126-1.188 3.312-1 4.25-1.438-.812-1.438-.812-.973-.625.997-5.771z"/></g><g><path fill="#E8E3DF" d="M138.751 51.043c.917-2.583 3.708-6.712 7.375-7.962s7.667-1.458 10.459 1.045c2.504 2.246 3.667 5.917 3.5 8.25s-1.711 6.121-3.833 8.417c-2.001 2.165-4.657 3.613-6.827 3.75-1.672.106-3.393-.231-5.34-1.167-.773-.372-2.877-1.504-4.459-4.628-1.326-2.615-1.792-5.121-.875-7.705z"/></g><g><path d="M142.578 58.042c-.122-1.561.109-4.379.922-6.188.381-.847 1.399-1.868 2.562-2.188 1.25-.344 3.174-.206 4.031.531 1.344 1.156 1.844 2.472 2.156 3.608.469 1.704.375 3.767 0 5.235-.26 1.017-.705 2.207-1.165 3.02-.372.657-1.229 1.729-1.96 1.98-.954.328-2.581.08-2.957-.042a4.14 4.14 0 0 1-2.083-1.479c-.522-.707-1.354-2.54-1.506-4.477z"/></g><g><path fill="#FFF" d="M148.646 53.709c.188-.786.812-1.376 1.521-1.376s1.215.571 1.458 1.042c.296.573.515 2.058.375 2.708-.103.477-.575 1.17-1.167 1.292-.516.105-1.188-.289-1.604-.832-.4-.522-.771-2.048-.583-2.834z"/></g><g><path fill="#3D2504" d="M140.266 49.453c-.508.858-.807 1.193-.973 1.318s-.524.146-.482-.146.434-1.147.815-1.859c.326-.609 1.114-1.556 1.5-2.031.374-.46 1.452-1.488 2.084-2.026.76-.646 2.375-1.542 2.75-1.708s1.407-.637 2.538-.834a10.39 10.39 0 0 1 3.472-.041c1.27.198 1.578.234 2.641.672 1.06.437 1.64.875 2.172 1.344.52.458 1.539 1.397 2.312 3.188.797 1.844.723 2.014.938 3.297.208 1.24.168 2.032.136 2.625-.023.438 0 .917-.292 1.042s-.888-.462-.958-.958c-.083-.589-.298-2.139-.458-2.792-.241-.98-.365-1.589-.912-2.761-.553-1.184-1.167-1.667-2.031-2.391-.766-.641-2.032-1.021-2.973-1.224-.778-.167-1.669-.203-2.855-.136-1.135.064-2.778.48-3.562.802-.672.276-1.615.684-2.407 1.198-.711.461-1.747 1.306-2.141 1.703-.477.479-.861.953-1.314 1.718z"/><path fill="#683C0C" d="M142.3 62.33c.125-.141.678.082.981.249.484.266.89.47 1.484.75.617.291 1.35.486 2 .585.766.116 1.562.207 2.656.071 1.492-.184 1.844-.404 2.658-.758.873-.38 1.188-.542 1.816-.955.559-.368.907-.554 1.464-.959.371-.27.484-.432.619-.395.285.077.139.208.077.364-.062.156-.571.747-1.031 1.125-.435.357-1.27.95-1.734 1.229-.578.347-1.574.793-2.399 1.099-.844.312-1.42.371-2.25.391-.988.023-1.672-.136-2.46-.312-.685-.153-1.649-.516-2.594-1.203-.419-.306-1.412-1.141-1.287-1.281z"/></g><g><path fill="none" stroke="#000" stroke-width=".5" stroke-miterlimit="10" d="M386.793 250.636l8.052.981c2.047-3.055 4.892-.477 5.32-.992.328-.609-3.32-4.797.294-6.05 4.227-1.466 12.744-.718 11.636-1.591-1.25-.984-1.635-3.426.198-3.146 1.833.28 5.802.051 5.802.051s-1.969-2.771.531-3.104 5.833-3.667 14.833-6.167c5.021-1.395 21.479-6.4 20.628-6.363"/></g><g><path fill="#3F3C3C" d="M505.489 190.25s4.386 1.35 4.948 1.537c.562.187 9 1.062 9.625 1.062s16.812-.125 18.25 0c1.438.125 10.312.375 11.375.312 1.062-.063 6.938.812 8 1.25 1.062.438 5.25 2.312 5.688 2.688.438.376 2.938 1.75 3.062 2.312.123.562-.438 2.625-.938 2.812-.5.188-2.75.438-3.188.625-.438.188-.875.625-1.25.688-.375.062-4.188 0-4.375.312-.187.312-1.562.562-2.062.688s-1.562 1.938-1.25 2.562-1 1-1.062 1.688c-.062.688.562 1.875.875 2.312.312.438.125.938.125.938s-4.875-.312-5.688-.312-5.25.071-5.562.009c-.312-.062-4.243-.09-5.057.035-.812.125-3.128.32-6.132.59-1.162.104-4.961.221-8.969.531-5.032.39-10.124 1.607-10.576 1.572-.084-.006-5.439 1.246-6.252 1.621-.517.238-1.233-.981-1.859-.881-.642.104-1.7 1.235-1.825 1.423-.431.646-2.016-.5-2.761-.089-.082.046-1.324.238-3.522.528-.297.039-.162.401-.492.444-.751.096-1.337-.075-2.258.037-.763.09-1.238.758-2.109.857-1.146.133-2.699-.064-3.656.859-.056.053-5.016.922-5.016.922-.183.105.967-.062-3.047.172-.465.027-4.116.883-4.562.969-.271.053-3.225.107-5.007 1.062-.12.064-4.106-.016-4.106-.016-.786.492-3.396.547-3.396.547-.353.414-2.551.543-3.801.918-1.177.352-7.065.727-7.534-.836-45.642-3.801-39.754-12.769-70.874-22.269-11.871-3.624-15.75-11.75-40.25-24-20.938-10.469-37.251-7.981-73.75-14.625-29.25-1.138-58.011-85.409-100.191-42.437-4.447 4.53 48.275-48.786 48.275-48.786l12.054-10.563 8.875 2.75s7.375 4.5 8.125 4.875 5.875 1 7.125 1.375 12.875 4.875 15 5.625 16.125 5.375 17.75 5.75 9.875 2.25 11 2.875 9.625 3.875 10.625 4.125 15.25 5 16.75 5.75 11.5 5 12.75 5.5 12.125 5.25 13 5.625 16.875 9.75 17.75 10.125 11.625 7.125 12.125 7.75 14.375 9.25 15 9.625 10.625 9 11 9.625 11.125 10.625 19.625 14.375 20.25 9.875 20.625 10.25 12.125 5.875 15.75 7 17.375 7.5 19.75 8.375 12.375 4.375 12.375 4.375 14.5 3.625 15.5 4.375 8.875 5.5 9.75 6 3.612 1.373 4.612 1.873 4.25 4.25 4.125 5.125-4 4.125-5 4.25-3.875.75-4.25.875-.125 1.186-.875 1.592c-.75.408-4.75-.906-6.625 0-1.875.908-7.125 1.283-7.625 1.783s-4.875.75-5.375.875-4.375.5-4.875.625-5.125 0-5.125 0"/></g><g><g fill="none" stroke="#000" stroke-width=".5" stroke-miterlimit="10"><path d="M165.06 119.67c-4.447 4.53 48.275-48.786 48.275-48.786l12.054-10.563 8.875 2.75s7.375 4.5 8.125 4.875 5.875 1 7.125 1.375 12.875 4.875 15 5.625 16.125 5.375 17.75 5.75 9.875 2.25 11 2.875 9.625 3.875 10.625 4.125 15.25 5 16.75 5.75 11.5 5 12.75 5.5 12.125 5.25 13 5.625 16.875 9.75 17.75 10.125 11.625 7.125 12.125 7.75 14.375 9.25 15 9.625 10.625 9 11 9.625 11.125 10.625 19.625 14.375 20.25 9.875 20.625 10.25 12.125 5.875 15.75 7 17.375 7.5 19.75 8.375 12.375 4.375 12.375 4.375 14.5 3.625 15.5 4.375 8.875 5.5 9.75 6 3.612 1.373 4.612 1.873 4.25 4.25 4.125 5.125-4 4.125-5 4.25-3.875.75-4.25.875-.125 1.187-.875 1.593c-.75.407-4.75-.906-6.625 0-1.875.907-7.125 1.282-7.625 1.782s-4.875.75-5.375.875-4.375.5-4.875.625-5.125 0-5.125 0"/><path d="M505.489 190.251s4.386 1.351 4.948 1.537c.562.187 9 1.062 9.625 1.062s16.812-.125 18.25 0c1.438.125 10.312.375 11.375.312 1.062-.063 6.938.812 8 1.25 1.062.438 5.25 2.312 5.688 2.688.438.377 2.938 1.75 3.062 2.312.123.562-.438 2.625-.938 2.812-.5.188-2.75.438-3.188.625-.438.188-.875.625-1.25.688-.375.062-4.188 0-4.375.312-.187.312-1.562.562-2.062.688s-1.562 1.938-1.25 2.562-1 1-1.062 1.688c-.062.688.562 1.875.875 2.312.312.438.125.938.125.938s-4.875-.312-5.688-.312-5.25.071-5.562.01c-.312-.062-4.243-.09-5.057.035-.812.125-3.128.319-6.132.59-1.162.104-4.961.221-8.969.53-5.032.39-10.124 1.607-10.576 1.572-.084-.006-5.439 1.246-6.252 1.621-.517.237-1.233-.981-1.859-.881-.642.104-1.7 1.235-1.825 1.423-.431.646-2.016-.5-2.761-.089-.082.046-1.324.237-3.522.528-.297.039-.162.402-.492.446-.751.096-1.337-.077-2.258.035-.763.092-1.238.76-2.109.859-1.146.133-2.699-.064-3.656.859-.056.053-5.016.922-5.016.922-.183.105.967-.062-3.047.172-.465.027-4.116.883-4.562.969-.271.053-3.225.107-5.007 1.062-.12.064-4.106-.016-4.106-.016-.786.492-3.396.547-3.396.547-.353.414-2.551.543-3.801.918-1.177.352-4.018.449-3.572.416"/></g></g><g><path fill="#44403D" d="M165.059 114.167c1.97-5.147-2.15-6.885-2.174-9.5-.047-5.424 6.011-10.577 8.947-15.666 3.56-6.167 8.834-9 10.668-17.349 2.101-9.568-.022-18.047-3.125-23.499-3.443-6.048-14.812-8.064-14.391-10.528.957-5.604 8.141-15.312 8.141-15.312.562-.25 0 .938 0 .938s4.625-.375 5.062-.562.375 1.125.375 1.125 3.875.062 4.312-.062c.438-.124 0 1.062 0 1.062s3.812.625 4.75.75c.938.125.375 1 .375 1s3.625.438 4.125.75.312 1.25.312 1.25 4.688.5 5.438.438c.751-.062 0 1 0 1s5.001 1.188 5.562 1.375-.375 1.375-.375 1.375 6.5.812 7.25.75 0 1 0 1 3 1.312 3.688 1.312c.688 0-.5.938-.5.938s5.188 2.125 5.75 2.125c.562 0-.875 1.123-.875 1.123s5.438 2.438 6.062 2.375c.623-.063-1 1.062-1 1.062s5.938 2.938 6.312 3.562c.373.624-.939.875-.939.875s4.875 2.625 6 2.5-.375 1-.375 1 3.689 1.312 4 1.562c.312.25-.938 1-.938 1s1.5.875 2.062 1-1.062 1.125-1.062 1.125 1.875 1.938 2.375 2.25-1.312.625-1.312.625.75 1.062 1.125 1.438-1.434 1.126-1.434 1.126 1.562 2.562 2 2.875-2.062-.125-2.062-.125.48.751.375 1c-.104.249-3.938-.438-3.938-.438s1.75 3.312 1.875 4.25-3.75-2.312-3.75-2.312.375 1.658.312 2.454-2.188-2.079-2.188-2.079.188 2.375-.189 3.062c-.375.687-1.311-2-1.311-2S229.875 72 229.437 73c-.436 1-1.875-1.75-1.875-1.75s.189 2.812-.25 3.688c-.438.876-1.938-2.375-1.938-2.375s-.75 3.812-1.625 4.875-1.5-2.125-1.5-2.125-.812 2.625-1.062 3.438-1.312-2.438-1.312-2.438.062 3.562-.312 4.312-1.812-2.375-1.812-2.375.688 4.438.062 5.188-1.562-3.062-1.562-3.062-1.312 4.312-1.812 5.062-.75-3.125-.75-3.125-1.188 4.062-1.812 4.625c-.625.563-.375-2.562-.938-2.062s-2.625 3.25-3.062 4c-.438.75.125-2.688-.438-2.438s-1.5 3.125-1.875 3.562-.062-2.812-.375-2.375S204 91.438 203.562 92s-.375-2.562-.625-2.062-1.938 3.438-2.25 3.875S200.375 91 200 91.75s-2.438 3.938-3.499 4.75c-1.062.812-.25-2.125-.875-1.562s-3.375 3.188-3.875 3.812.125-2.625-.25-2.062-4.438 3.688-5.188 4.375-.125-1.875-.562-1.5c-.438.375-3.125 3.188-3.75 4.188s-.5-1.25-.938-.812-1.312 2.312-1.375 3.062-.625-1.062-.875-.75-.812 1.75-1.125 2.438-.812-.75-1-.438-1.938 2.812-1.875 3.375-.938-1.125-.938-1.125-1.812 3.562-1.75 3.75c.062.188-.625-1.375-.625-1.375s-1.562 3.312-1.562 4-1.188-1.188-1.188-1.188-1.375 3.188-1.062 3.938-1.188-2.126-1.188-2.126-1.188 3.312-1 4.25c.188.938-1.438-.812-1.438-.812s-.974-.625.997-5.771z"/></g><g><path fill="none" stroke="#000" stroke-width=".5" stroke-miterlimit="10" d="M129.625 93.312c-.622-.192-1.25-1.125-2.188-1s-1.75-1.875-1.75-1.875l-1 1.438s-.062-2.562 0-3.312 1.062-2.188 1.062-2.375c0-.188 3.875-1.875 3.875-1.875h-2.812l4.375-2.438-1.125-.75 2.875-.812-.688-.75 2.938-.438-3.268-.651v-1.062l-3.419.338-.438-1.25h-4.625l-.312-1.625-1.312.688-2.768-3.108-.92 1.672-1.25-3.5-1.062 1.062v-4.062l-1.25.938-.479-1.231s-.583-1.702-1.083-2.204 1.083 0 1.083 0-1.22-3.252-1.183-3.439c.037-.188 1.184 0 1.184 0s-.723-3.717-1.185-4.297c-.462-.578.61-.828.61-.828s-.702-4.25-.762-4.812 1.002 0 1.002 0 .562-6.25 1.25-6.25 1.188.75 1.188.75 1.375-4.625 1.75-4.938c.375-.313 1.25.686 1.25.686s1.188-4.123 2.25-4.873 1.088 1.421 1.088 1.421 2.037-5.671 2.662-6.046.688 1.562.688 1.562 3.062-4.625 4.188-5 .312 1.5.312 1.5 4.812-3.688 5.625-3.5c.813.188.5 1.25.5 1.25s4.75-3.812 5.625-3.75c.875.062.422 1.25.422 1.25S146.312 23 147.188 23s.37 1.25.37 1.25 5.067-2 5.692-1.938c.625.062 0 1.312 0 1.312s6.5-2.25 7.438-1.875-.494 1.5-.494 1.5 6.619-1.948 7.557-1.537 0 1.349 0 1.349 4.812-.5 5.375-.75 0 .938 0 .938 4.625-.375 5.062-.562c.437-.188.375 1.125.375 1.125s3.875.062 4.312-.062 0 1.062 0 1.062 3.812.625 4.75.75.375 1 .375 1 3.625.438 4.125.75.312 1.25.312 1.25 4.688.5 5.438.438 0 1 0 1 5 1.188 5.562 1.375-.375 1.375-.375 1.375 6.5.812 7.25.75 0 1 0 1 3 1.312 3.688 1.312-.5.938-.5.938 5.188 2.125 5.75 2.125-.875 1.125-.875 1.125 5.438 2.438 6.062 2.375-1 1.062-1 1.062 5.938 2.938 6.312 3.562-.938.875-.938.875 4.875 2.625 6 2.5-.375 1-.375 1 3.688 1.312 4 1.562-.938 1-.938 1 1.5.875 2.062 1-1.062 1.125-1.062 1.125 1.875 1.938 2.375 2.25c.5.312-1.312.625-1.312.625s.75 1.062 1.125 1.438-1.436 1.126-1.436 1.126 1.562 2.562 2 2.875-2.062-.125-2.062-.125.479.751.375 1-3.938-.438-3.938-.438 1.75 3.312 1.875 4.25c.125.938-3.75-2.312-3.75-2.312s.375 1.658.312 2.454-2.188-2.079-2.188-2.079.188 2.375-.188 3.062c-.376.687-1.312-2-1.312-2S229.875 72 229.438 73s-1.875-1.75-1.875-1.75.188 2.812-.25 3.688c-.438.877-1.938-2.375-1.938-2.375s-.75 3.812-1.625 4.875c-.875 1.063-1.5-2.125-1.5-2.125s-.812 2.625-1.062 3.438-1.312-2.438-1.312-2.438.062 3.562-.312 4.312-1.812-2.375-1.812-2.375.688 4.438.062 5.188-1.562-3.062-1.562-3.062-1.312 4.312-1.812 5.062-.75-3.125-.75-3.125-1.188 4.062-1.812 4.625c-.624.563-.375-2.562-.938-2.062s-2.625 3.25-3.062 4 .125-2.688-.438-2.438-1.5 3.125-1.875 3.562-.062-2.812-.375-2.375S204 91.438 203.562 92s-.375-2.562-.625-2.062-1.938 3.438-2.25 3.875c-.312.437-.312-2.813-.687-2.063s-2.438 3.938-3.5 4.75-.25-2.125-.875-1.562-3.375 3.188-3.875 3.812.125-2.625-.25-2.062c-.375.563-4.438 3.688-5.188 4.375-.75.688-.125-1.875-.562-1.5s-3.125 3.188-3.75 4.188-.5-1.25-.938-.812c-.438.438-1.312 2.312-1.375 3.062s-.625-1.062-.875-.75-.812 1.75-1.125 2.438c-.313.688-.812-.75-1-.438s-1.938 2.812-1.875 3.375-.938-1.125-.938-1.125-1.812 3.562-1.75 3.75-.625-1.375-.625-1.375-1.562 3.312-1.562 4-1.188-1.188-1.188-1.188-1.375 3.188-1.062 3.938-1.187-2.126-1.187-2.126-1.188 3.312-1 4.25-1.438-.812-1.438-.812-1.188 3-1 3.75-1.125-1.062-1.125-1.062-.688 3.812-.562 4.5-1.438-.75-1.438-.75-.562 3.75-.312 4.188c.25.438-1.625-.439-1.625-.439s-1 4-.625 4.75-1.75-.625-1.75-.625-.938 2.75-.5 3.562c.438.812-1-1.562-1-1.562s-.75 3.25-.25 4-1.188 0-1.188 0 .688 3.812.875 4.062-1.312-.5-1.312-.5.062 5.438.562 6.188-1.688-1-1.688-1 1 3.5 1.375 4.25-1.062 0-1.062 0 .5 2.562.625 3.375-1.5-1-1.5-1-.562 3.562-.438 4.25-1.25-1.375-1.25-1.375.625 3.438.312 4.25-1.062-.562-1.062-.562-.5 2.812-.312 3.125c.188.313-1.188-1.125-1.188-1.125s.625 1.812.688 2.25c.063.438-2.281-1.5-2.281-1.5s1.031 3.812 1.156 4.438c.165.825-1.25.312-1.25.312s2 2.875 2.125 3.188-1.188 0-1.188 0 1.562 3.438 1.625 3.875-1.312 0-1.312 0 1.125 4.938 1.188 5.312c.063.375-1.438-.938-1.438-.938s1.688 4.25 1.875 4.875-1.438-.625-1.438-.625 2 3.375 2.062 4.125-1.438 0-1.438 0 1.125 3.188 1.25 4-1.25-.812-1.25-.812-.375 2.062-.312 3.562-1.625-3.625-1.625-3.625-1.25.125-1.188.688c.062.563-1.062-3.812-1.062-3.812s-1.062.875-.938 1.438c.124.562-1.061-3.939-1.061-3.939s-.688.812-.625 1.125-.875-4.125-.875-4.125-1 2.062-.875 2.25-1.375-6.438-1.062-6.375-1.312 1-1.25 1.312c.062.312-1.062-4.688-1.062-4.688s-1.25.938-1 1.438-.438-5-.438-5-1.625 1.562-1.562 1.938-.875-5.562-.875-5.562-1.125 1.688-.938 2.188-.5-5.438-.5-5.438-1.188.812-.938 1.125c.25.313-.625-5.25-.625-5.25s-1 1.5-.938 1.688-.625-4.875-.625-4.875-1.312 1.062-1.188 1.375.188-4.875.188-4.875-1.688.312-1.5.562.625-5.438.625-5.438-1.625 1-1.5 1.25.188-5.688.188-5.688-1.312.188-1.312.688.25-3.875.25-3.875-1.875.25-1.875.625 1.562-3 1.562-3-2.062-.375-2.062 0 2.5-3.562 2.5-3.562-2.375-.188-2.438.25c-.063.438 2.312-3.875 2.312-4.5s-2.125.25-2.125.25 1.875-2.625 2.062-3.188-1.625.25-1.625.25 1.562-2.062 1.625-2.562-1.938.062-1.938.062 2.812-3.625 3.125-4.375-1.688-.062-1.688-.062 4.356-4.125 4.366-4.625c.01-.5-2.241-.188-2.241-.188s3-2.562 3.375-3.125-2.062-.688-2.062-.688 3.438-4.312 3.875-4.75c.437-.438-2.312-.468-2.312-.468s4.25-3.782 4.562-4.22-2-.25-2-.25 2.812-2.938 2.938-3.562c.126-.623-1.5.125-1.5.125s.562-2.562.688-3.5c.126-.938-1 .188-1 .188s-.102-1.296-.156-2.376c-.019-.414-.155-1.811-.718-2.187z"/></g><g stroke="#000" stroke-width=".5" stroke-miterlimit="10"><path fill="none" stroke-linecap="round" d="M458.211 192.455s-.322 1.393-.673 2.067c-.351.675-1.54.288-1.614.921-.074.633-1.056.821-1.791.658"/><path fill="#47362A" d="M364.862 231.977s-.074 1.107-.998 1.253c-.926.145-2.078-.186-2.757.158-.678.343-.439 1.564-1.148 1.44-.71-.126-2.975-1.344-2.975-1.344M352.137 229.368s-.821 1.335-1.481 1.856c-.66.522-2.151-.668-2.428-.015-.277.653-1.648.232-2.594-.42M337.978 237.724s-2.041.131-2.61.955c-.568.826-1.775.822-2.421.787-.647-.036-.766-1.09-1.879-1.498"/></g><g><g fill="none" stroke="#000" stroke-width=".5" stroke-miterlimit="10"><path d="M482.296 205.5s1.75 3.248 1.688 4.343c-.061 1.095.062 3.22-.25 3.782-.311.562-2.438 2.875-3.312 3.188-.875.312-4.75.938-5.25 1.312s-1.625.875-1.938.875-2.25-.75-2.75-.688c-.5.062-3.125.188-3.5.375-.375.188-6.312.188-7 .312s-5.25-.375-5.438-.375c-.189 0-1.875.938-3.625 1.062-1.75.123-6.125-.125-6.375-.438s-4.062.062-6.312-.25-8.375-2.188-9.312-2.125-9.375-2.375-9.938-2.938-8.375-2.25-10.438-5.938M398.671 161.375s4.875 1 5.75 2 5.125 4.375 5.75 4.875 4.25 4.125 5 5.125 1.75 2.75 1.875 3.375-.625 2.25-1.125 2.375-2.25 1.25-2.125 2-1.625 1.75-2.125 1.875-3 .375-3.125 1.125-3.375 2.25-4 2.375-4.75.5-5.875.5"/><path d="M413.796 181.125s3.25 2.625 4.125 3.875 4 3.75 4.5 4.125 1.25 3.625 1.375 4.625-1 4.145-1.5 4.447c-.5.302-3.5.428-4.125 1.178s-1.125 2.625-2.125 3.5-6.75 2.875-7.5 2.625-2.625-.707-4 .021-8.875-.646-10.25-.771-9.625-4.75-10.125-5.125-8.609-4.125-9.867-3.625M277.796 141.25s3.625 1 4.125 2.375 4 2.75 4.875 3.125 4.625 2.375 5.875 3.25 2.75 4.125 3 5.375-1.625 2.125-2.875 2.25-2.875-1.375-3.125 0-2.479 2-2.926 2.375-3.699.25-5.074 0-4.125-1.375-4.5-1.875-1.875-1.875-2.5-1.75-1.125 1.125-1.75 2-2.375 1.75-3.75 1.25-3.749.349-4.499.612M490.046 190c4.454 1.334 7.125 4.5 8 5.875s.375 5.625 0 6-4.125 1.875-4.875 2.5-3.25-.625-4.25 0-2 1-2.625 1.125-3.75-.75-4 0-8.75.5-10.5.75-4.625.125-5.5 0-8-1.5-8.625-1.125-5.579 1.458-3.875.25"/></g></g></svg>